<?xml version="1.0" standalone="no"?>
<!DOCTYPE svg PUBLIC "-//W3C//DTD SVG 20010904//EN"
 "http://www.w3.org/TR/2001/REC-SVG-20010904/DTD/svg10.dtd">
<svg version="1.0" xmlns="http://www.w3.org/2000/svg"
 width="1024.000000pt" height="1024.000000pt" viewBox="0 0 1024.000000 1024.000000"
 preserveAspectRatio="xMidYMid meet">
<metadata>
Created by potrace 1.14, written by Peter Selinger 2001-2017
</metadata>
<g transform="translate(0.000000,1024.000000) scale(0.100000,-0.100000)"
fill="#000000" stroke="none">
<path d="M2966 9821 c2 -2 -2 -11 -9 -19 -10 -13 -9 -14 3 -7 12 7 13 6 4 -6
-6 -8 -9 -26 -8 -42 2 -19 -1 -25 -9 -20 -9 5 -9 3 0 -8 10 -12 10 -18 0 -28
-9 -10 -8 -11 6 -5 13 5 16 2 11 -10 -3 -9 -11 -13 -18 -9 -6 4 -6 0 2 -9 10
-13 10 -18 1 -24 -9 -5 -7 -10 5 -20 10 -7 13 -15 7 -18 -6 -4 -7 -14 -4 -23
5 -12 3 -14 -8 -8 -11 7 -12 6 -2 -6 9 -11 9 -19 2 -26 -8 -8 -7 -13 2 -18 8
-6 10 -4 4 5 -5 9 -4 11 4 6 9 -6 9 -11 0 -22 -6 -8 -8 -14 -3 -14 5 0 2 -5
-6 -10 -10 -6 -11 -10 -2 -10 6 0 12 -9 12 -21 0 -13 -4 -18 -12 -14 -7 4 -4
-1 6 -9 11 -9 15 -16 9 -16 -11 0 -11 -78 0 -96 3 -6 3 -14 -1 -18 -11 -11 -9
-50 3 -58 7 -5 6 -8 -1 -8 -11 0 -12 -35 -2 -46 11 -10 -3 -34 -16 -27 -7 4
-7 2 1 -7 8 -9 9 -19 3 -31 -7 -12 -6 -20 2 -25 7 -5 8 -3 3 6 -5 9 -4 11 4 6
8 -6 9 -12 2 -20 -6 -7 -8 -16 -4 -19 3 -4 0 -7 -8 -7 -10 -1 -9 -4 4 -11 14
-8 16 -14 6 -25 -6 -8 -8 -14 -3 -14 5 0 2 -5 -6 -10 -10 -6 -11 -10 -3 -10 8
0 12 -13 11 -35 -1 -22 -5 -32 -12 -28 -6 4 -5 0 1 -8 9 -11 9 -19 2 -26 -8
-8 -7 -13 2 -18 8 -6 10 -4 4 5 -5 9 -4 11 4 6 9 -6 9 -11 0 -22 -6 -8 -8 -14
-3 -14 5 0 2 -5 -6 -10 -10 -6 -11 -10 -2 -10 6 0 12 -9 12 -21 0 -13 -4 -18
-12 -14 -7 4 -4 -1 6 -9 11 -9 15 -16 9 -16 -11 0 -11 -78 0 -96 3 -6 3 -14
-1 -18 -11 -11 -9 -50 3 -58 7 -5 6 -8 -1 -8 -11 0 -12 -35 -2 -46 11 -10 -3
-34 -16 -27 -7 4 -7 2 1 -7 8 -9 9 -19 3 -31 -7 -12 -6 -20 2 -25 7 -5 8 -3 3
6 -5 9 -4 11 4 6 8 -6 9 -12 2 -20 -6 -7 -8 -16 -4 -19 3 -4 0 -7 -8 -7 -10
-1 -9 -4 4 -11 14 -8 16 -14 6 -25 -6 -8 -8 -14 -3 -14 5 0 2 -5 -6 -10 -10
-6 -11 -10 -3 -10 8 0 12 -13 11 -35 -1 -22 -5 -32 -12 -28 -6 4 -5 0 1 -8 9
-11 9 -19 2 -26 -8 -8 -7 -13 2 -18 8 -6 10 -4 4 5 -5 9 -4 11 4 6 9 -6 9 -11
0 -22 -6 -8 -8 -14 -3 -14 5 0 2 -5 -6 -10 -10 -6 -11 -10 -2 -10 6 0 12 -9
12 -21 0 -13 -4 -18 -12 -14 -7 4 -4 -1 6 -9 11 -9 15 -16 9 -16 -11 0 -11
-78 0 -96 3 -6 3 -14 -1 -18 -11 -11 -9 -50 3 -58 7 -5 6 -8 -1 -8 -11 0 -12
-35 -2 -46 11 -10 -3 -34 -16 -27 -7 4 -7 2 1 -7 8 -9 9 -19 3 -31 -7 -12 -6
-20 2 -25 7 -5 8 -3 3 6 -5 9 -4 11 4 6 8 -6 9 -12 2 -20 -6 -7 -8 -16 -4 -19
3 -4 0 -7 -7 -7 -9 0 -8 -5 5 -13 13 -10 15 -16 6 -21 -6 -4 -9 -12 -6 -17 4
-5 0 -9 -7 -9 -10 0 -10 -2 1 -9 10 -6 12 -20 8 -45 -3 -20 -1 -38 4 -42 7 -4
6 -10 0 -18 -6 -7 -8 -16 -4 -19 3 -4 0 -7 -8 -7 -10 -1 -9 -4 4 -11 9 -6 15
-15 12 -20 -4 -5 -12 -6 -18 -2 -7 4 -6 0 2 -10 8 -10 11 -27 7 -41 -3 -14 -1
-28 4 -31 8 -5 8 -11 1 -19 -6 -7 -8 -16 -4 -19 3 -4 0 -7 -8 -7 -10 -1 -9 -4
4 -11 9 -6 15 -15 12 -20 -4 -5 -12 -6 -18 -2 -9 5 -9 3 -1 -8 15 -20 16 -61
1 -53 -9 5 -9 3 0 -6 9 -9 9 -17 2 -26 -7 -8 -6 -14 2 -20 8 -5 9 -3 4 6 -5 9
-4 11 4 6 9 -6 9 -11 0 -22 -6 -8 -8 -14 -3 -14 5 0 2 -5 -6 -10 -10 -6 -11
-10 -2 -10 6 0 12 -9 12 -21 0 -13 -4 -18 -12 -14 -7 4 -4 -1 6 -9 11 -9 15
-16 9 -16 -11 0 -11 -78 0 -96 3 -6 3 -14 -1 -18 -11 -11 -9 -50 3 -58 7 -5 6
-8 -1 -8 -11 0 -12 -35 -2 -46 11 -10 -3 -34 -16 -27 -7 4 -7 2 1 -7 8 -9 9
-19 3 -31 -7 -12 -6 -20 2 -25 7 -5 8 -3 3 6 -5 9 -4 11 4 6 8 -6 9 -12 2 -20
-6 -7 -8 -16 -4 -19 3 -4 0 -7 -7 -7 -9 0 -8 -5 5 -13 13 -10 15 -16 6 -21 -6
-4 -9 -12 -6 -17 4 -5 0 -9 -7 -9 -10 0 -10 -2 1 -9 10 -6 12 -20 8 -45 -3
-20 -1 -38 4 -42 7 -4 6 -10 0 -18 -6 -7 -8 -16 -4 -19 3 -4 0 -7 -8 -7 -10
-1 -9 -4 4 -11 9 -6 15 -15 12 -20 -4 -5 -12 -6 -18 -2 -7 4 -6 0 2 -10 8 -10
11 -27 7 -41 -3 -14 -1 -28 4 -31 8 -5 8 -11 1 -19 -6 -7 -8 -16 -4 -19 3 -4
0 -7 -8 -7 -10 -1 -9 -4 4 -11 9 -6 15 -15 12 -20 -4 -5 -11 -6 -17 -3 -7 5
-8 2 -2 -7 5 -8 9 -21 9 -29 0 -8 4 -21 9 -29 7 -11 5 -13 -10 -7 -15 6 -16 5
-7 -5 8 -8 9 -18 3 -30 -7 -12 -6 -20 2 -25 7 -5 8 -3 3 6 -5 9 -4 11 4 6 9
-6 9 -11 0 -22 -6 -8 -8 -14 -3 -14 5 0 2 -5 -6 -10 -10 -7 -11 -10 -2 -10 8
0 11 -9 8 -25 -3 -15 0 -25 7 -25 8 0 8 -3 2 -8 -11 -8 -13 -37 -3 -47 11 -11
-3 -36 -16 -28 -7 4 -7 1 1 -9 7 -8 10 -18 6 -21 -3 -4 0 -14 8 -24 12 -15 12
-16 -4 -10 -11 4 -16 3 -12 -3 4 -6 8 -22 11 -36 3 -19 1 -24 -8 -18 -10 6 -9
3 1 -9 7 -9 10 -17 5 -17 -5 0 -2 -5 6 -10 8 -5 10 -10 4 -10 -13 0 -13 -62 1
-72 6 -5 6 -8 -1 -8 -11 0 -12 -35 -2 -46 11 -10 -3 -34 -16 -27 -7 4 -7 2 1
-8 10 -12 10 -18 0 -29 -10 -10 -9 -11 2 -5 11 6 13 2 7 -18 -3 -14 -1 -29 4
-32 8 -5 8 -11 1 -19 -6 -7 -8 -16 -4 -19 3 -4 0 -7 -8 -7 -10 -1 -9 -4 4 -11
9 -6 15 -15 12 -20 -4 -5 -12 -6 -18 -2 -7 4 -6 0 2 -10 8 -10 11 -27 7 -41
-3 -14 -1 -28 4 -31 8 -5 8 -11 1 -19 -6 -7 -8 -16 -4 -19 3 -4 0 -7 -8 -7
-10 -1 -9 -4 4 -11 9 -6 15 -15 12 -20 -4 -5 -12 -6 -18 -2 -9 5 -9 3 -1 -8
15 -20 16 -61 1 -52 -9 5 -9 3 0 -8 9 -11 9 -19 2 -26 -8 -8 -7 -13 2 -18 8
-6 10 -4 4 5 -5 9 -4 11 4 6 9 -6 9 -11 0 -22 -6 -8 -8 -14 -3 -14 5 0 2 -5
-6 -10 -10 -6 -11 -10 -2 -10 6 0 12 -9 12 -21 0 -13 -4 -18 -12 -14 -7 4 -4
-1 6 -9 11 -9 15 -16 9 -16 -11 0 -11 -78 0 -96 3 -6 3 -14 -1 -18 -11 -11 -9
-50 3 -58 7 -5 6 -8 -1 -8 -11 0 -12 -35 -2 -46 11 -10 -3 -34 -16 -27 -7 4
-7 2 1 -7 8 -9 9 -19 3 -31 -7 -12 -6 -20 2 -25 7 -5 8 -3 3 6 -5 9 -4 11 4 6
8 -6 9 -12 2 -20 -6 -7 -8 -16 -4 -19 3 -4 0 -7 -7 -7 -9 0 -8 -5 5 -13 13
-10 15 -16 6 -21 -6 -4 -9 -12 -6 -17 4 -5 0 -9 -7 -9 -10 0 -10 -2 1 -9 10
-6 12 -20 8 -45 -3 -20 -1 -38 4 -42 7 -4 6 -10 0 -18 -6 -7 -8 -16 -4 -19 3
-4 0 -7 -8 -7 -10 -1 -9 -4 4 -11 9 -6 15 -15 12 -20 -4 -5 -12 -6 -18 -2 -7
4 -6 0 2 -10 8 -10 11 -27 7 -41 -3 -14 -1 -28 4 -31 8 -5 8 -11 1 -19 -6 -7
-8 -16 -4 -19 3 -4 0 -7 -8 -7 -10 -1 -9 -4 4 -11 9 -6 15 -15 12 -20 -4 -5
-12 -6 -18 -2 -9 5 -9 3 -1 -8 6 -8 10 -22 9 -31 -2 -10 1 -18 6 -18 6 0 7 -5
4 -10 -4 -6 -12 -8 -18 -4 -7 3 -4 -1 6 -9 17 -14 17 -15 0 -21 -14 -6 -15 -9
-4 -15 7 -5 10 -14 7 -20 -4 -6 -1 -11 6 -11 11 0 10 -2 0 -9 -11 -6 -10 -10
4 -15 10 -4 15 -4 12 0 -11 10 12 45 24 38 7 -4 8 -3 4 5 -4 6 -12 9 -17 6 -5
-4 -9 -1 -9 4 0 6 5 11 10 11 6 0 10 5 10 11 0 7 8 18 18 25 16 13 16 14 -3 7
l-20 -6 20 23 c11 13 14 20 6 15 -9 -5 -9 -1 2 16 9 13 17 28 19 34 2 5 6 9
10 8 4 -2 4 5 1 14 -4 10 -2 14 4 10 6 -4 9 4 7 19 -2 20 1 24 13 20 13 -5 14
-4 3 9 -10 12 -10 15 0 15 7 0 10 8 7 20 -3 11 0 18 7 17 6 -1 10 6 8 16 -2 9
2 17 8 17 6 0 10 8 8 17 -2 10 3 17 9 16 7 -2 12 0 11 5 -3 17 44 122 54 116
4 -3 5 1 2 9 -3 8 0 18 5 22 6 3 9 11 6 16 -4 5 1 12 9 15 9 3 16 14 16 24 0
10 6 25 14 32 7 8 17 24 20 36 4 12 12 22 18 22 5 0 8 7 4 15 -3 8 0 14 6 12
5 -1 12 6 13 16 5 26 36 58 49 50 6 -4 5 1 -3 10 -9 12 -10 17 -2 17 7 0 9 5
6 10 -3 6 1 13 9 16 9 3 14 10 11 14 -3 4 2 10 10 14 8 3 15 13 15 22 0 10 5
14 16 10 9 -3 12 -2 9 4 -7 11 53 110 67 110 4 0 8 7 8 15 0 8 7 15 15 15 8 0
14 6 12 13 -1 6 4 11 10 10 7 -2 12 0 12 5 -4 23 3 34 17 28 9 -3 12 -2 8 5
-3 6 25 41 62 77 38 36 60 60 49 52 -20 -14 -20 -14 -1 7 10 12 21 21 25 20 3
-1 8 3 10 8 2 6 14 20 27 32 l24 22 0 392 c1 215 0 393 -2 394 -2 2 -1 38 2
80 3 42 3 78 0 80 -3 2 -3 38 0 80 3 42 3 78 0 80 -3 2 -3 38 0 80 3 42 3 78
0 80 -3 2 -3 38 0 80 3 42 3 78 0 80 -3 2 -3 38 0 80 3 42 3 78 0 80 -3 2 -3
38 0 80 3 42 3 78 0 80 -3 2 -3 38 0 80 3 42 4 78 2 79 -2 3 -2 991 0 1409 0
26 4 47 10 47 5 0 6 5 2 11 -4 8 -1 8 12 1 11 -5 25 -7 33 -4 8 2 11 0 8 -5
-3 -5 0 -10 8 -10 8 0 12 4 9 8 -2 4 0 10 6 14 5 3 10 1 10 -5 0 -7 8 -9 21
-5 16 5 20 4 15 -6 -4 -8 -1 -6 7 3 13 17 15 16 26 -5 6 -12 10 -14 7 -5 -3 9
2 19 11 22 11 4 14 2 9 -9 -4 -12 -2 -13 13 -6 12 7 22 6 31 -2 10 -9 11 -9 6
0 -3 6 -2 14 4 18 5 3 10 1 10 -5 0 -7 8 -9 21 -5 16 5 20 4 15 -6 -4 -8 0 -5
8 5 15 19 22 12 17 -16 0 -5 4 -8 10 -8 6 0 9 6 6 14 -3 8 1 17 10 20 11 4 14
2 9 -9 -4 -12 -2 -13 13 -6 12 7 22 6 31 -2 10 -9 11 -9 6 0 -3 6 -2 14 4 18
5 3 10 1 10 -5 0 -7 8 -9 21 -5 16 5 20 4 15 -6 -4 -8 0 -5 8 5 15 19 22 12
17 -16 0 -5 4 -8 10 -8 6 0 9 6 6 14 -3 8 1 17 10 20 11 4 14 2 9 -9 -4 -12
-2 -13 13 -6 12 7 22 6 31 -2 10 -9 11 -9 6 0 -3 6 -2 14 4 18 5 3 10 1 10 -5
0 -7 8 -9 21 -5 16 5 20 4 15 -6 -4 -8 0 -5 8 5 15 19 22 12 17 -16 0 -5 4 -8
10 -8 6 0 9 6 6 14 -3 8 1 17 10 20 11 4 14 2 9 -9 -4 -12 -2 -13 13 -6 12 7
22 6 31 -2 10 -9 11 -9 6 0 -3 6 -2 14 4 18 5 3 10 1 10 -5 0 -7 8 -9 21 -5
16 5 20 4 15 -6 -4 -8 0 -5 8 5 15 19 22 12 17 -16 0 -5 4 -8 10 -8 6 0 9 6 6
14 -3 8 1 17 10 20 11 4 14 2 9 -9 -4 -12 -2 -13 13 -6 12 7 22 6 31 -2 10 -9
11 -9 6 0 -3 6 -2 14 4 18 5 3 10 1 10 -5 0 -7 8 -9 21 -5 16 5 20 4 15 -6 -4
-8 0 -5 8 5 15 19 22 12 17 -16 0 -5 4 -8 10 -8 6 0 9 6 6 14 -3 8 1 17 10 20
11 4 14 2 9 -9 -4 -12 -2 -13 13 -6 12 7 22 6 31 -2 10 -9 11 -9 6 0 -3 6 -2
14 4 18 5 3 10 1 10 -5 0 -7 8 -9 21 -5 16 5 20 4 15 -6 -4 -8 0 -5 8 5 15 19
22 12 17 -16 0 -5 4 -8 10 -8 6 0 9 6 6 14 -3 8 1 17 10 20 11 4 14 2 9 -9 -4
-12 -2 -13 13 -6 12 7 22 6 31 -2 10 -9 11 -9 6 0 -3 6 -2 14 4 18 5 3 10 1
10 -5 0 -7 8 -9 21 -5 16 5 20 4 15 -6 -4 -8 0 -5 8 5 15 19 22 12 17 -16 0
-5 4 -8 10 -8 6 0 9 6 6 14 -3 8 1 17 10 20 10 4 13 2 10 -7 -3 -7 3 -13 13
-13 10 0 17 4 14 8 -7 11 39 6 55 -6 11 -8 13 -8 8 1 -4 6 -3 14 2 17 5 3 12
-1 15 -10 6 -15 8 -15 31 0 29 19 33 12 7 -12 -10 -10 -12 -13 -5 -9 6 5 17 6
23 2 6 -4 9 -1 8 7 -4 17 130 20 151 4 11 -8 13 -8 8 1 -4 6 -3 14 2 17 5 3
12 -1 15 -10 6 -15 8 -15 31 0 29 19 33 12 7 -12 -10 -10 -12 -13 -5 -9 6 5
17 6 23 2 6 -4 9 -1 8 7 -4 17 130 20 151 4 11 -8 13 -8 8 1 -4 6 -3 14 2 17
5 3 12 -1 15 -10 6 -15 8 -15 31 0 29 19 33 12 7 -12 -10 -10 -12 -13 -5 -9 6
5 17 6 23 2 6 -4 9 -1 8 7 -4 17 130 20 151 4 11 -8 13 -8 8 1 -4 6 -3 14 2
17 5 3 12 -1 15 -10 6 -15 8 -15 31 0 29 19 33 12 7 -12 -10 -10 -12 -13 -5
-9 6 5 17 6 23 2 6 -4 9 -1 8 7 -4 17 130 20 151 4 11 -8 13 -8 8 1 -4 6 -3
14 2 17 5 3 12 -1 15 -10 6 -15 8 -15 31 0 29 19 33 12 7 -12 -10 -10 -12 -13
-5 -9 6 5 17 6 23 2 6 -4 9 -1 8 7 -4 17 130 20 151 4 11 -8 13 -8 8 1 -4 6
-3 14 2 17 5 3 12 -1 15 -10 6 -15 8 -15 31 0 29 19 33 12 7 -12 -10 -10 -12
-13 -5 -9 6 5 17 6 23 2 6 -4 9 -1 8 7 -4 17 130 20 151 4 11 -8 13 -8 8 1 -4
6 -3 14 3 18 5 3 10 1 10 -5 0 -6 4 -8 10 -5 6 3 10 -2 11 -12 1 -13 3 -11 9
7 4 14 8 20 9 13 1 -7 11 -10 29 -6 15 3 32 6 38 6 13 0 14 27 1 27 -5 0 -3 8
4 17 12 15 12 16 -1 8 -12 -7 -13 -6 -3 6 7 9 8 20 3 29 -5 8 -4 22 2 34 8 15
8 21 -1 24 -9 3 -9 8 1 20 11 13 11 14 -2 7 -12 -7 -13 -6 -3 6 7 9 8 20 3 29
-5 8 -4 22 2 34 8 15 8 21 -1 24 -9 3 -9 8 1 20 11 13 11 14 -2 7 -12 -7 -13
-6 -3 6 7 9 8 20 3 29 -5 8 -4 22 2 34 8 15 8 21 -1 24 -9 3 -9 8 1 20 11 13
11 14 -2 7 -12 -7 -13 -6 -3 6 7 9 8 20 3 29 -5 8 -4 22 2 33 5 11 6 22 2 26
-12 8 -17 34 -6 27 9 -6 8 67 -2 82 -2 4 -1 14 4 22 5 8 5 22 -1 32 -5 10 -6
18 -1 18 5 0 9 7 9 15 0 8 -3 15 -7 15 -9 0 -6 32 4 48 4 6 2 12 -3 12 -6 0
-10 5 -8 12 3 15 -23 18 -42 4 -11 -8 -13 -8 -8 1 8 13 -51 12 -73 -2 -8 -5
-11 -4 -7 2 4 6 -12 9 -38 9 -25 -1 -45 -5 -45 -11 0 -7 -3 -7 -8 0 -9 13
-225 13 -234 0 -5 -6 -8 -6 -8 2 0 13 -38 12 -59 -2 -9 -5 -12 -4 -7 3 7 12
-53 10 -74 -3 -7 -5 -11 -4 -7 1 3 5 -80 9 -199 9 -129 0 -204 -4 -204 -10 0
-7 -3 -7 -8 0 -9 13 -225 13 -234 0 -5 -6 -8 -6 -8 1 0 14 -70 13 -70 -1 0 -7
-3 -7 -8 0 -9 13 -225 13 -234 0 -5 -7 -8 -7 -8 0 0 12 -360 13 -379 0 -9 -5
-12 -4 -7 3 7 12 -53 10 -74 -3 -8 -5 -11 -4 -7 2 4 6 -12 9 -38 9 -25 -1 -45
-5 -45 -11 0 -7 -3 -7 -8 0 -9 13 -225 13 -234 0 -5 -6 -8 -6 -8 2 0 13 -38
12 -59 -2 -9 -5 -12 -4 -7 3 7 12 -53 10 -74 -3 -7 -5 -11 -4 -7 1 3 5 -80 9
-199 9 -129 0 -204 -4 -204 -10 0 -7 -3 -7 -8 0 -9 13 -225 13 -234 0 -5 -6
-8 -6 -8 1 0 14 -70 13 -70 -1 0 -7 -3 -7 -8 0 -9 13 -225 13 -234 0 -5 -7 -8
-7 -8 0 0 6 -51 10 -134 10 -74 0 -132 -2 -130 -4z"/>
<path d="M7194 9753 c4 -7 3 -13 -3 -13 -6 0 -8 -7 -5 -15 3 -8 2 -20 -2 -27
-13 -20 -13 -37 -2 -45 7 -4 8 -1 3 7 -6 9 -4 11 5 5 10 -6 9 -11 -5 -22 -11
-7 -13 -13 -7 -13 7 0 12 -5 12 -11 0 -5 -5 -7 -12 -3 -7 5 -8 3 -3 -7 12 -18
14 -49 3 -43 -4 3 -8 1 -8 -5 0 -5 6 -11 13 -14 9 -3 9 -7 -2 -20 -10 -13 -10
-17 -1 -17 9 0 9 -4 -1 -17 -12 -14 -12 -16 0 -8 11 6 13 4 7 -11 -13 -32 -15
-55 -5 -49 12 8 12 -2 -2 -27 -8 -15 -8 -19 0 -14 12 8 15 -6 4 -18 -11 -10
-12 -37 -2 -30 5 3 9 -2 9 -11 0 -9 -4 -14 -8 -11 -5 3 -9 -1 -9 -9 0 -8 4
-12 9 -9 4 3 8 1 8 -5 0 -5 -6 -12 -12 -14 -10 -4 -9 -6 1 -6 11 -1 11 -4 0
-18 -8 -9 -9 -14 -3 -10 8 4 11 -2 10 -17 0 -13 -4 -22 -8 -19 -5 2 -8 -1 -8
-6 0 -6 4 -11 9 -11 11 0 9 -40 -4 -59 -5 -9 -4 -12 2 -8 7 4 10 -3 9 -17 0
-13 -4 -22 -8 -19 -5 2 -8 -1 -8 -6 0 -6 4 -11 9 -11 11 0 9 -40 -4 -59 -5 -9
-4 -12 2 -8 7 4 10 -3 9 -17 0 -13 -4 -22 -8 -19 -5 2 -8 -1 -8 -6 0 -6 4 -11
9 -11 11 0 9 -40 -4 -59 -5 -9 -4 -12 2 -8 7 4 10 -3 9 -17 0 -13 -4 -22 -8
-19 -5 2 -8 0 -8 -6 0 -5 6 -11 13 -14 9 -3 9 -7 -2 -20 -8 -10 -9 -17 -3 -17
12 0 10 -39 -3 -59 -5 -9 -4 -12 2 -8 7 4 10 -3 9 -17 0 -13 -4 -22 -8 -20 -4
2 -10 -1 -14 -7 -4 -7 -3 -9 4 -5 16 10 25 -13 12 -29 -8 -10 -9 -15 -2 -15
12 0 10 -39 -3 -59 -5 -9 -4 -12 2 -8 7 4 10 -3 9 -17 0 -13 -4 -22 -8 -19 -5
2 -8 0 -8 -6 0 -5 6 -11 13 -14 9 -3 9 -7 -2 -20 -8 -10 -9 -17 -3 -17 12 0
10 -39 -3 -59 -5 -9 -4 -12 2 -8 7 4 10 -3 9 -17 0 -13 -4 -22 -8 -20 -4 2
-10 -1 -14 -7 -4 -7 -3 -9 4 -5 16 10 25 -13 12 -29 -10 -12 -10 -15 0 -15 9
0 9 -4 -1 -17 -8 -9 -9 -14 -3 -10 8 4 11 -2 10 -17 0 -13 -4 -22 -8 -19 -5 2
-8 -1 -8 -6 0 -6 4 -11 9 -11 11 0 9 -40 -4 -59 -5 -9 -4 -12 2 -8 7 4 10 -3
9 -17 0 -13 -4 -22 -8 -19 -5 2 -8 -1 -8 -6 0 -6 4 -11 9 -11 11 0 9 -40 -4
-59 -6 -10 -4 -12 5 -6 10 6 12 4 6 -11 -13 -32 -15 -55 -5 -49 12 8 12 -2 -2
-27 -8 -15 -8 -19 0 -14 12 8 15 -6 4 -18 -11 -10 -12 -37 -2 -30 5 3 9 -2 9
-11 0 -9 -4 -14 -8 -11 -5 3 -9 -1 -9 -9 0 -8 4 -12 9 -9 4 3 8 1 8 -5 0 -5
-6 -12 -12 -14 -10 -4 -9 -6 1 -6 11 -1 11 -4 0 -18 -8 -9 -9 -14 -3 -10 8 4
11 -2 10 -17 0 -13 -4 -22 -8 -19 -5 2 -8 -1 -8 -6 0 -6 4 -11 9 -11 11 0 8
-46 -2 -57 -4 -3 -7 -11 -7 -17 0 -6 5 -4 11 4 8 12 9 10 7 -10 -2 -14 -7 -28
-13 -32 -6 -5 -6 -8 2 -8 13 0 12 -38 -2 -59 -5 -10 -4 -12 3 -7 7 4 12 1 12
-9 0 -13 4 -14 22 -4 l22 12 -18 -29 c-19 -29 -19 -29 1 -11 11 9 23 14 28 10
4 -5 5 -3 2 3 -4 7 3 12 18 12 14 0 23 -4 20 -8 -2 -3 2 -7 10 -7 8 0 13 3 11
6 -2 3 20 6 50 6 30 0 54 -4 54 -8 0 -5 5 -5 10 -2 6 4 7 12 3 18 -5 8 -2 8 9
0 8 -7 18 -10 21 -6 4 3 18 7 31 8 20 0 23 -2 13 -14 -10 -11 -8 -13 10 -7 41
13 63 15 63 5 0 -6 5 -7 10 -4 6 4 7 12 3 18 -5 8 -2 8 9 0 8 -7 18 -10 21 -6
4 3 18 7 31 8 21 0 23 -2 13 -14 -10 -12 -9 -14 6 -8 10 4 21 7 23 7 3 0 3 4
0 9 -3 4 6 6 19 3 14 -2 23 -8 20 -11 -2 -4 2 -8 10 -8 8 0 13 3 11 6 -2 3 11
6 30 6 19 0 34 -3 34 -8 0 -4 5 -5 10 -2 6 4 7 12 3 18 -5 8 -2 8 9 0 8 -7 18
-10 21 -6 4 3 18 7 31 8 21 0 23 -2 13 -14 -10 -12 -9 -14 6 -8 10 4 21 7 23
7 3 0 3 4 0 9 -3 4 6 6 19 3 15 -2 22 -9 18 -16 -4 -7 -1 -7 8 1 12 10 18 10
29 0 10 -9 11 -9 6 1 -4 6 -2 12 3 12 6 0 11 -4 11 -10 0 -5 5 -10 10 -10 6 0
9 3 9 8 -4 21 3 23 27 7 15 -9 23 -12 20 -6 -4 6 -3 11 3 11 5 0 11 -6 14 -12
3 -10 8 -10 18 1 12 12 12 13 0 6 -9 -5 -12 -4 -7 3 5 9 13 9 26 2 23 -12 33
-13 26 -1 -3 4 6 6 19 3 14 -2 22 -9 18 -15 -4 -6 -1 -7 7 -2 18 11 80 13 80
2 0 -4 5 -5 10 -2 6 4 7 12 3 18 -5 8 -2 8 9 0 8 -7 18 -10 21 -6 4 3 18 7 31
8 21 0 23 -2 13 -14 -10 -12 -9 -14 6 -8 10 4 21 7 23 7 3 0 3 4 0 9 -3 4 6 6
19 3 15 -2 22 -9 18 -16 -4 -7 -1 -7 8 1 12 10 18 10 29 0 10 -9 11 -9 6 1 -4
6 -2 12 3 12 6 0 11 -4 11 -10 0 -5 5 -10 10 -10 6 0 9 3 9 8 -4 21 3 23 27 7
15 -9 23 -12 20 -6 -4 6 -3 11 3 11 5 0 11 -6 14 -12 3 -10 8 -10 18 1 12 12
12 13 0 6 -9 -5 -12 -4 -7 3 5 9 13 9 26 2 23 -12 33 -13 26 -1 -3 4 6 6 19 3
14 -2 23 -8 20 -11 -2 -4 2 -8 10 -8 8 0 13 3 11 6 -2 3 11 6 30 6 19 0 34 -3
34 -8 0 -4 5 -5 10 -2 6 4 7 12 3 18 -5 8 -2 8 9 0 8 -7 18 -10 21 -6 4 3 18
7 31 8 21 0 23 -2 13 -14 -10 -12 -9 -14 6 -8 10 4 21 7 23 7 3 0 2 6 -2 13
-5 9 -4 9 6 0 7 -6 19 -9 28 -6 11 5 13 3 7 -8 -7 -11 -6 -12 6 -2 12 10 18
10 29 0 10 -9 11 -9 6 1 -4 6 -2 12 3 12 6 0 11 -4 11 -10 0 -5 5 -10 10 -10
6 0 9 3 9 8 -4 21 3 23 27 7 15 -9 23 -12 20 -6 -4 6 -3 11 3 11 5 0 11 -6 14
-12 3 -10 8 -10 18 1 12 12 12 13 0 6 -9 -5 -12 -4 -7 3 5 9 13 9 27 2 14 -8
19 -7 20 2 0 7 4 4 9 -7 5 -11 9 -15 9 -9 1 7 19 11 45 10 27 0 42 -5 38 -11
-3 -5 3 -3 13 5 11 8 16 10 11 3 -5 -9 -2 -11 8 -7 9 3 13 11 10 18 -3 6 4 0
17 -14 l22 -25 -7 25 c-6 21 -5 23 6 10 14 -16 52 -24 42 -9 -3 5 3 9 14 9 10
0 21 3 25 6 7 7 -61 74 -75 74 -6 0 -7 7 -4 16 3 8 2 13 -2 11 -10 -7 -32 19
-24 28 4 4 2 5 -4 3 -6 -1 -29 16 -51 39 -22 23 -43 39 -47 36 -3 -4 -6 0 -6
7 0 16 -86 101 -94 92 -3 -3 -6 4 -6 16 0 12 -3 21 -7 21 -18 -3 -33 2 -31 9
4 11 -109 122 -116 115 -3 -4 -6 3 -6 15 0 12 -3 21 -7 21 -17 -3 -33 1 -32 9
3 18 -2 33 -9 28 -11 -7 -52 22 -52 36 0 14 -127 138 -134 130 -3 -3 -6 5 -6
17 0 13 -4 20 -11 16 -6 -4 -13 3 -16 15 -4 16 -8 18 -14 8 -6 -8 -9 -9 -9 -1
0 14 -76 94 -83 87 -2 -3 -8 7 -11 23 -6 21 -9 24 -17 12 -5 -8 -9 -9 -9 -3 0
16 -56 75 -64 67 -3 -3 -6 3 -6 15 0 12 -3 21 -7 21 -18 -3 -33 1 -31 9 5 13
-88 102 -108 102 -12 0 -15 3 -7 8 8 5 9 13 3 22 -9 13 -10 13 -10 0 0 -13 -2
-13 -9 0 -6 8 -7 18 -5 22 5 7 -10 12 -28 9 -8 -1 -12 15 -9 32 0 4 -9 7 -21
7 -12 0 -19 3 -16 6 9 8 -76 94 -92 94 -7 0 -11 3 -7 6 3 4 -13 25 -36 47 -23
22 -41 45 -39 50 1 4 -1 6 -6 3 -5 -3 -14 4 -22 14 -8 10 -17 17 -22 14 -4 -3
-8 4 -8 15 0 12 -3 20 -7 20 -17 -3 -33 1 -32 9 3 18 -2 33 -9 28 -4 -2 -14
-1 -22 5 -13 7 -13 9 0 9 13 0 13 1 0 10 -9 6 -17 5 -22 -3 -5 -8 -8 -6 -8 7
0 20 -104 128 -114 118 -3 -3 -6 1 -6 9 0 20 -64 79 -86 79 -13 0 -15 3 -7 8
8 5 9 13 3 22 -9 13 -10 13 -10 0 0 -13 -2 -13 -9 0 -6 8 -7 18 -5 22 5 7 -10
12 -28 9 -8 -1 -12 15 -9 32 0 4 -9 7 -21 7 -12 0 -19 3 -16 6 8 7 -75 94 -89
94 -6 0 -17 8 -24 18 -13 16 -12 16 6 2 11 -8 -8 13 -42 47 -34 33 -59 64 -55
68 4 3 3 6 -3 5 -19 -4 -38 0 -32 6 7 8 -17 34 -32 34 -5 0 -12 9 -16 19 -3
11 -15 23 -26 26 -10 4 -17 10 -14 15 3 4 -3 14 -12 21 -12 10 -14 10 -9 2z"/>
<path d="M5136 9002 c-3 -5 1 -9 9 -9 8 0 12 4 9 9 -3 4 -7 8 -9 8 -2 0 -6 -4
-9 -8z"/>
<path d="M5270 8998 c0 -6 3 -8 7 -5 3 4 13 1 22 -6 14 -11 14 -10 2 6 -15 20
-31 22 -31 5z"/>
<path d="M5376 9002 c-3 -5 1 -9 9 -9 8 0 12 4 9 9 -3 4 -7 8 -9 8 -2 0 -6 -4
-9 -8z"/>
<path d="M5510 8998 c0 -6 3 -8 7 -5 3 4 13 1 22 -6 14 -11 14 -10 2 6 -15 20
-31 22 -31 5z"/>
<path d="M5616 9002 c-3 -5 1 -9 9 -9 8 0 12 4 9 9 -3 4 -7 8 -9 8 -2 0 -6 -4
-9 -8z"/>
<path d="M5750 8998 c0 -6 3 -8 7 -5 3 4 13 1 22 -6 14 -11 14 -10 2 6 -15 20
-31 22 -31 5z"/>
<path d="M5856 9002 c-3 -5 1 -9 9 -9 8 0 12 4 9 9 -3 4 -7 8 -9 8 -2 0 -6 -4
-9 -8z"/>
<path d="M5990 8998 c0 -6 3 -8 7 -5 3 4 13 1 22 -6 14 -11 14 -10 2 6 -15 20
-31 22 -31 5z"/>
<path d="M6096 9002 c-3 -5 1 -9 9 -9 8 0 12 4 9 9 -3 4 -7 8 -9 8 -2 0 -6 -4
-9 -8z"/>
<path d="M6230 8998 c0 -6 3 -8 7 -5 3 4 13 1 22 -6 14 -11 14 -10 2 6 -15 20
-31 22 -31 5z"/>
<path d="M6336 9002 c-3 -5 1 -9 9 -9 8 0 12 4 9 9 -3 4 -7 8 -9 8 -2 0 -6 -4
-9 -8z"/>
<path d="M6470 8998 c0 -6 3 -8 7 -5 3 4 13 1 22 -6 14 -11 14 -10 2 6 -15 20
-31 22 -31 5z"/>
<path d="M6576 9002 c-3 -5 1 -9 9 -9 8 0 12 4 9 9 -3 4 -7 8 -9 8 -2 0 -6 -4
-9 -8z"/>
<path d="M3797 8989 c7 -7 15 -10 18 -7 3 3 -2 9 -12 12 -14 6 -15 5 -6 -5z"/>
<path d="M3875 8991 c-3 -5 -2 -12 3 -15 5 -3 9 1 9 9 0 17 -3 19 -12 6z"/>
<path d="M4035 8991 c-3 -5 -2 -12 3 -15 5 -3 9 1 9 9 0 17 -3 19 -12 6z"/>
<path d="M4195 8991 c-3 -5 -2 -12 3 -15 5 -3 9 1 9 9 0 17 -3 19 -12 6z"/>
<path d="M4355 8991 c-3 -5 -2 -12 3 -15 5 -3 9 1 9 9 0 17 -3 19 -12 6z"/>
<path d="M4515 8991 c-3 -5 -2 -12 3 -15 5 -3 9 1 9 9 0 17 -3 19 -12 6z"/>
<path d="M4675 8991 c-3 -5 -2 -12 3 -15 5 -3 9 1 9 9 0 17 -3 19 -12 6z"/>
<path d="M4835 8991 c-3 -5 -2 -12 3 -15 5 -3 9 1 9 9 0 17 -3 19 -12 6z"/>
<path d="M4995 8991 c-3 -5 -2 -12 3 -15 5 -3 9 1 9 9 0 17 -3 19 -12 6z"/>
<path d="M6455 8969 c-4 -6 -5 -12 -2 -15 2 -3 7 2 10 11 7 17 1 20 -8 4z"/>
<path d="M3906 8958 c3 -5 10 -6 15 -3 13 9 11 12 -6 12 -8 0 -12 -4 -9 -9z"/>
<path d="M4066 8958 c3 -5 10 -6 15 -3 13 9 11 12 -6 12 -8 0 -12 -4 -9 -9z"/>
<path d="M4226 8958 c3 -5 10 -6 15 -3 13 9 11 12 -6 12 -8 0 -12 -4 -9 -9z"/>
<path d="M4386 8958 c3 -5 10 -6 15 -3 13 9 11 12 -6 12 -8 0 -12 -4 -9 -9z"/>
<path d="M4546 8958 c3 -5 10 -6 15 -3 13 9 11 12 -6 12 -8 0 -12 -4 -9 -9z"/>
<path d="M4706 8958 c3 -5 10 -6 15 -3 13 9 11 12 -6 12 -8 0 -12 -4 -9 -9z"/>
<path d="M4866 8958 c3 -5 10 -6 15 -3 13 9 11 12 -6 12 -8 0 -12 -4 -9 -9z"/>
<path d="M5026 8958 c3 -5 10 -6 15 -3 13 9 11 12 -6 12 -8 0 -12 -4 -9 -9z"/>
<path d="M8827 8119 c7 -7 15 -10 18 -7 3 3 -2 9 -12 12 -14 6 -15 5 -6 -5z"/>
<path d="M849 7862 c-19 -3 -32 -72 -14 -72 5 0 3 -5 -5 -10 -11 -7 -11 -10
-2 -10 9 0 10 -5 4 -16 -5 -9 -6 -32 -2 -51 7 -29 6 -33 -7 -28 -12 4 -13 2
-6 -7 6 -7 13 -28 15 -46 4 -26 2 -32 -10 -27 -11 4 -12 2 -5 -7 6 -7 12 -30
15 -50 3 -32 2 -35 -11 -25 -12 10 -13 9 -2 -12 7 -13 11 -34 8 -47 -2 -14 1
-24 7 -24 7 0 7 -3 1 -8 -5 -4 -10 -29 -10 -57 0 -27 5 -53 10 -57 7 -5 6 -8
-1 -8 -6 0 -8 -19 -4 -55 5 -46 4 -55 -8 -50 -11 4 -12 2 -5 -7 6 -7 13 -28
15 -46 4 -26 2 -32 -10 -27 -11 4 -12 2 -5 -7 6 -7 13 -28 15 -46 4 -26 2 -32
-10 -27 -11 4 -12 2 -5 -7 6 -7 13 -28 15 -46 4 -26 2 -32 -10 -27 -11 4 -12
2 -5 -7 6 -7 12 -30 15 -50 3 -32 2 -35 -11 -25 -12 10 -13 9 -2 -12 7 -13 11
-34 8 -47 -2 -14 1 -24 7 -24 7 0 7 -3 1 -8 -5 -4 -10 -29 -10 -57 0 -27 5
-53 10 -57 7 -5 6 -8 -1 -8 -6 0 -8 -19 -4 -55 5 -46 4 -55 -8 -50 -11 4 -12
2 -5 -7 6 -7 13 -28 15 -46 4 -26 2 -32 -10 -27 -12 4 -13 3 -2 -10 7 -8 10
-28 8 -45 -3 -16 -1 -30 4 -30 5 0 6 -6 1 -12 -4 -7 -6 -24 -4 -37 2 -17 -1
-21 -11 -16 -7 3 -5 0 5 -8 18 -15 18 -15 0 -20 -17 -4 -17 -5 0 -6 10 0 15
-6 12 -12 -11 -17 -11 -89 0 -89 7 0 7 -3 0 -8 -12 -8 -14 -112 -2 -112 5 0 5
-6 0 -12 -4 -7 -6 -24 -4 -37 2 -17 -1 -21 -11 -16 -7 3 -5 0 5 -8 18 -15 18
-15 0 -20 -17 -4 -17 -5 0 -6 10 0 15 -6 12 -12 -11 -17 -11 -89 0 -89 7 0 7
-3 0 -8 -6 -4 -10 -55 -10 -117 0 -62 4 -113 10 -117 6 -5 6 -8 -2 -8 -11 0
-9 -44 3 -79 3 -9 -1 -11 -12 -7 -14 5 -15 4 -4 -9 7 -8 10 -24 7 -34 -3 -11
0 -22 7 -25 7 -3 6 -5 -3 -5 -11 -1 -11 -4 0 -18 12 -15 12 -16 -5 -10 -14 6
-16 4 -9 -5 6 -7 13 -28 15 -46 4 -26 2 -32 -10 -27 -11 4 -12 2 -5 -7 6 -7
12 -30 15 -50 3 -32 2 -35 -11 -25 -12 10 -13 9 -2 -12 7 -13 11 -34 8 -47 -2
-14 1 -24 7 -24 7 0 7 -3 1 -8 -5 -4 -10 -29 -10 -57 0 -27 5 -53 10 -57 7 -5
6 -8 -1 -8 -6 0 -8 -19 -4 -55 5 -46 4 -55 -8 -50 -11 4 -12 2 -5 -7 6 -7 13
-28 15 -46 4 -26 2 -32 -10 -27 -12 4 -12 3 -3 -9 8 -10 11 -45 9 -105 -2 -56
1 -91 7 -91 6 0 4 -4 -3 -9 -8 -4 -13 -12 -11 -17 16 -59 17 -75 2 -69 -13 4
-14 3 -3 -10 7 -8 10 -24 7 -35 -3 -11 0 -20 6 -20 8 0 8 -3 2 -8 -14 -10 -17
-32 -4 -32 6 0 7 -5 2 -12 -4 -7 -6 -24 -4 -37 2 -17 -1 -21 -11 -16 -7 3 -5
0 5 -8 18 -15 18 -15 0 -20 -17 -4 -17 -5 0 -6 10 0 15 -6 12 -12 -11 -17 -11
-89 0 -89 7 0 7 -3 0 -8 -12 -8 -14 -112 -2 -112 5 0 5 -6 0 -12 -4 -7 -6 -24
-4 -37 2 -17 -1 -21 -11 -16 -7 3 -5 0 5 -8 18 -15 18 -15 0 -20 -17 -4 -17
-5 0 -6 10 0 15 -6 12 -12 -11 -17 -11 -89 0 -93 6 -3 6 -5 -1 -5 -6 -1 -8
-21 -4 -56 5 -46 4 -55 -8 -50 -11 4 -12 2 -5 -7 6 -7 13 -28 15 -46 4 -26 2
-32 -10 -27 -11 4 -12 2 -5 -7 6 -7 12 -30 15 -50 3 -32 2 -35 -11 -25 -12 10
-13 9 -2 -12 7 -13 11 -34 8 -47 -2 -14 1 -24 7 -24 7 0 7 -3 1 -8 -5 -4 -10
-29 -10 -57 0 -27 5 -53 10 -57 7 -5 6 -8 -1 -8 -6 0 -8 -19 -4 -55 5 -46 4
-55 -8 -50 -11 4 -12 2 -5 -7 6 -7 13 -28 15 -46 4 -26 2 -32 -10 -27 -11 4
-12 2 -5 -7 6 -7 13 -28 15 -46 4 -26 2 -32 -10 -27 -11 4 -12 2 -5 -7 6 -7
13 -28 15 -46 4 -26 2 -32 -10 -27 -11 4 -12 2 -5 -7 6 -7 12 -30 15 -50 3
-32 2 -35 -11 -25 -12 10 -13 9 -2 -12 7 -13 11 -34 8 -47 -2 -14 1 -24 7 -24
7 0 7 -3 1 -8 -5 -4 -10 -29 -10 -57 0 -27 5 -53 10 -57 7 -5 6 -8 -1 -8 -6 0
-8 -19 -4 -55 5 -46 4 -55 -8 -50 -11 4 -12 2 -5 -7 6 -7 13 -28 15 -46 4 -26
2 -32 -10 -27 -12 4 -13 3 -2 -10 7 -8 10 -28 8 -45 -3 -16 -1 -30 4 -30 5 0
6 -6 1 -12 -4 -7 -6 -24 -4 -37 2 -17 -1 -21 -11 -16 -7 3 -5 0 5 -8 18 -15
18 -15 0 -20 -17 -4 -17 -5 0 -6 10 0 15 -6 12 -12 -11 -17 -11 -89 0 -89 7 0
7 -3 0 -8 -12 -8 -14 -112 -2 -112 5 0 5 -6 0 -12 -4 -7 -6 -24 -4 -37 2 -17
-1 -21 -11 -16 -7 3 -5 0 5 -8 18 -15 18 -15 0 -20 -17 -4 -17 -5 0 -6 10 0
15 -6 12 -12 -11 -17 -11 -89 0 -89 7 0 7 -3 0 -8 -6 -4 -10 -55 -10 -117 0
-62 4 -113 10 -117 6 -5 6 -8 -2 -8 -11 0 -9 -44 3 -79 3 -9 -1 -11 -12 -7
-14 5 -15 4 -4 -9 7 -8 10 -24 7 -34 -3 -11 0 -22 7 -25 7 -3 6 -5 -3 -5 -11
-1 -11 -4 0 -18 12 -15 12 -16 -5 -10 -14 6 -16 4 -9 -5 6 -7 13 -28 15 -46 4
-26 2 -32 -10 -27 -11 4 -12 2 -5 -7 6 -7 12 -30 15 -50 3 -32 2 -35 -11 -25
-12 10 -13 9 -2 -12 7 -13 11 -34 8 -47 -2 -14 1 -24 7 -24 7 0 7 -3 1 -8 -5
-4 -10 -29 -10 -57 0 -27 5 -53 10 -57 7 -5 6 -8 -1 -8 -6 0 -8 -19 -4 -55 5
-46 4 -55 -8 -50 -11 4 -12 2 -5 -7 6 -7 13 -28 15 -46 4 -26 2 -32 -10 -27
-12 4 -12 3 -3 -9 8 -10 11 -45 9 -105 -2 -56 1 -91 7 -91 6 0 4 -4 -3 -9 -8
-4 -13 -12 -11 -17 17 -60 17 -75 1 -70 -13 5 -12 2 2 -9 11 -8 14 -15 7 -15
-7 0 -10 -3 -8 -8 6 -9 109 -8 124 1 15 9 27 -9 17 -25 -4 -7 -3 -8 4 -4 7 4
12 15 12 24 0 10 3 13 8 7 4 -6 16 -11 27 -11 11 0 23 5 27 11 5 7 8 7 8 0 0
-13 120 -12 140 0 9 5 11 4 6 -4 -5 -8 0 -10 18 -7 14 3 30 7 36 11 5 3 10 1
10 -5 0 -7 7 -9 16 -6 14 5 15 4 5 -8 -8 -10 -9 -16 -1 -21 6 -4 10 -3 9 2 -1
4 1 16 5 25 7 16 10 16 28 -5 11 -12 17 -17 14 -11 -7 15 37 34 54 24 8 -5 22
-4 31 1 12 6 20 5 25 -3 4 -6 3 -8 -4 -4 -6 3 -13 2 -16 -3 -4 -5 2 -8 11 -7
9 2 19 8 21 14 2 8 11 3 24 -10 11 -13 17 -18 14 -12 -7 15 37 34 54 24 8 -5
22 -4 31 1 12 6 20 5 25 -3 4 -6 3 -8 -4 -4 -6 3 -13 2 -16 -3 -4 -5 2 -8 11
-7 9 2 19 8 21 14 2 8 11 3 24 -10 11 -13 17 -18 14 -12 -7 15 37 34 54 24 8
-5 22 -4 31 1 12 6 20 5 25 -3 4 -6 3 -8 -4 -4 -6 3 -13 2 -16 -3 -4 -5 2 -8
11 -7 9 2 19 8 21 14 2 8 11 3 24 -10 11 -13 17 -18 14 -12 -7 15 37 34 54 24
8 -5 22 -4 33 2 11 5 22 6 26 1 7 -10 122 -10 138 0 14 9 27 -9 17 -25 -4 -7
-3 -8 4 -4 7 4 12 15 12 24 0 10 3 13 8 7 9 -14 45 -14 54 0 5 7 8 7 8 0 0
-12 120 -13 138 -1 14 8 25 -10 16 -26 -4 -7 -3 -8 4 -4 7 4 12 15 12 24 0 10
3 13 8 7 9 -14 45 -14 54 0 5 7 8 7 8 0 0 -12 120 -13 138 -1 14 8 25 -10 16
-26 -4 -7 -3 -8 4 -4 7 4 12 15 12 24 0 10 3 13 8 7 9 -14 45 -14 54 0 5 7 8
7 8 0 0 -12 120 -13 138 -1 14 8 25 -10 16 -26 -4 -7 -3 -8 4 -4 7 4 12 15 12
24 0 10 3 13 8 7 4 -6 16 -11 27 -11 11 0 23 5 27 11 5 7 8 7 8 0 0 -13 120
-12 140 0 9 5 11 4 6 -3 -9 -15 -1 -15 24 -2 10 6 21 7 24 2 5 -9 81 -6 96 3
17 11 11 -7 -7 -22 -16 -13 -16 -13 3 -4 12 6 24 8 27 4 4 -3 9 1 13 10 5 15
9 14 26 -6 11 -12 17 -17 14 -11 -7 15 37 34 54 24 8 -5 22 -4 31 1 12 6 20 5
25 -3 4 -6 3 -8 -4 -4 -6 3 -13 2 -16 -3 -4 -5 2 -8 11 -7 9 2 19 8 21 14 2 8
11 3 24 -10 11 -13 17 -18 14 -12 -7 15 37 34 54 24 8 -5 22 -4 31 1 12 6 20
5 25 -3 4 -6 3 -8 -4 -4 -6 3 -13 2 -16 -3 -4 -5 2 -8 11 -7 9 2 19 8 21 14 2
8 11 3 24 -10 11 -13 17 -18 14 -12 -7 15 37 34 54 24 8 -5 22 -4 31 1 12 6
20 5 25 -3 4 -6 3 -8 -4 -4 -6 3 -13 2 -16 -3 -4 -5 2 -8 11 -7 9 2 19 8 21
14 2 8 11 3 24 -10 11 -13 17 -18 14 -12 -7 15 37 34 54 24 8 -5 22 -4 31 1
10 5 20 6 23 1 5 -9 47 -8 63 1 14 9 27 -9 17 -25 -4 -7 -3 -8 4 -4 7 4 12 15
12 24 0 10 3 13 8 7 9 -14 45 -14 54 0 5 7 8 7 8 0 0 -12 120 -13 138 -1 14 8
25 -10 16 -26 -4 -7 -3 -8 4 -4 7 4 12 15 12 24 0 10 3 13 8 7 9 -14 45 -14
54 0 5 7 8 7 8 0 0 -13 120 -12 140 0 9 5 11 4 6 -4 -5 -8 0 -10 18 -7 14 3
30 7 36 11 5 3 10 2 10 -3 0 -10 71 -9 88 2 14 8 25 -10 16 -26 -4 -7 -3 -8 4
-4 7 4 12 15 12 24 0 10 3 13 8 7 4 -6 16 -11 27 -11 11 0 23 5 27 11 5 7 8 7
8 0 0 -12 120 -13 138 -1 14 8 25 -10 16 -26 -4 -7 -3 -8 4 -4 7 4 12 15 12
24 0 10 3 13 8 7 9 -14 45 -14 54 0 5 7 8 7 8 0 0 -13 120 -12 140 0 9 5 11 4
6 -4 -5 -8 0 -10 18 -7 14 3 30 7 36 11 5 3 10 1 10 -5 0 -7 7 -9 16 -6 14 5
15 4 5 -8 -8 -10 -9 -16 -1 -21 6 -4 10 -3 9 2 -1 4 1 16 5 25 7 16 10 16 28
-5 11 -12 17 -17 14 -11 -7 15 37 34 54 24 8 -5 22 -4 31 1 12 6 20 5 25 -3 4
-6 3 -8 -4 -4 -6 3 -13 2 -16 -3 -4 -5 2 -8 11 -7 9 2 19 8 21 14 2 8 11 3 24
-10 11 -13 17 -18 14 -12 -7 15 37 34 54 24 8 -5 22 -4 31 1 12 6 20 5 25 -3
4 -6 3 -8 -4 -4 -6 3 -13 2 -16 -3 -4 -5 2 -8 11 -7 9 2 19 8 21 14 2 8 11 3
24 -10 11 -13 17 -18 14 -12 -7 15 37 34 54 24 8 -5 22 -4 31 1 12 6 20 5 25
-3 4 -6 3 -8 -4 -4 -6 3 -13 2 -16 -3 -4 -5 2 -8 11 -7 9 2 19 8 21 14 2 8 11
3 24 -10 11 -13 17 -18 14 -12 -7 15 37 34 54 24 8 -5 22 -4 33 2 11 5 22 6
26 1 7 -10 122 -10 138 0 14 9 27 -9 17 -25 -4 -7 -3 -8 4 -4 7 4 12 15 12 24
0 10 3 13 8 7 4 -6 16 -11 27 -11 11 0 23 5 27 11 5 7 8 7 8 0 0 -12 120 -13
138 -1 14 8 25 -10 16 -26 -4 -7 -3 -8 4 -4 7 4 12 15 12 24 0 10 3 13 8 7 9
-14 45 -14 54 0 5 7 8 7 8 0 0 -12 120 -13 138 -1 14 8 25 -10 16 -26 -4 -7
-3 -8 4 -4 7 4 12 15 12 24 0 10 3 13 8 7 9 -14 45 -14 54 0 5 7 8 7 8 0 0
-12 120 -13 138 -1 14 8 25 -10 16 -26 -4 -7 -3 -8 4 -4 7 4 12 15 12 24 0 10
3 13 8 7 4 -6 16 -11 27 -11 11 0 23 5 27 11 5 7 8 7 8 0 0 -13 120 -12 140 0
9 5 11 4 6 -3 -9 -15 -1 -15 24 -2 10 6 21 7 24 2 5 -9 81 -6 96 3 17 11 11
-7 -8 -22 -15 -13 -15 -13 4 -4 12 6 24 8 27 4 4 -3 9 1 13 10 5 15 9 14 26
-6 11 -12 17 -17 14 -11 -7 15 37 34 54 24 8 -5 22 -4 31 1 12 6 20 5 25 -3 4
-6 3 -8 -4 -4 -6 3 -13 2 -16 -3 -4 -5 1 -8 10 -7 8 1 20 9 25 17 7 11 9 11 9
1 0 -7 4 -10 10 -7 9 5 15 -16 11 -38 -1 -5 3 -6 7 -3 5 3 7 18 5 33 -3 16 -1
23 4 18 11 -14 39 -12 35 3 -1 7 3 12 9 12 5 0 7 5 3 12 -12 18 -11 558 1 558
7 0 7 3 0 8 -19 13 -17 35 2 28 16 -5 16 -4 3 6 -12 10 -15 40 -15 143 0 75 4
133 10 137 6 5 6 8 -1 8 -6 0 -11 7 -11 15 0 10 6 14 16 10 14 -4 14 -4 1 7
-13 11 -15 50 -14 250 1 131 4 245 8 253 3 8 2 15 -2 15 -4 0 -7 21 -6 47 1
55 -5 85 -16 78 -13 -8 -176 -9 -188 -1 -7 4 -12 3 -12 -3 0 -6 -11 -6 -30 -1
-19 5 -30 5 -30 -1 0 -6 -8 -5 -20 1 -11 6 -20 7 -20 3 0 -12 -74 -10 -82 2
-5 7 -8 7 -8 0 0 -11 -101 -11 -119 -1 -6 4 -11 4 -11 -1 0 -10 -62 -9 -78 1
-7 4 -12 2 -12 -5 0 -8 -4 -8 -15 1 -8 7 -15 9 -15 4 0 -5 -34 -8 -76 -6 -66
2 -75 0 -70 -13 3 -9 2 -14 -3 -11 -4 3 -7 -18 -6 -47 1 -29 -3 -58 -9 -66 -8
-11 -8 -13 2 -7 7 4 12 1 12 -8 0 -10 -6 -13 -17 -10 -15 5 -15 4 -4 -4 17
-12 21 -71 6 -91 -7 -11 -7 -13 3 -7 7 4 12 1 12 -9 0 -10 -5 -13 -12 -9 -10
6 -10 4 -3 -7 13 -17 13 -88 1 -108 -6 -10 -5 -12 2 -7 8 5 12 -1 12 -14 0
-13 -4 -19 -11 -14 -8 5 -8 1 0 -14 14 -27 14 -35 -1 -26 -10 6 -10 4 0 -7 16
-17 16 -32 0 -23 -10 6 -10 4 -2 -7 6 -8 9 -40 8 -72 -2 -42 0 -56 9 -50 9 5
9 3 1 -8 -7 -8 -11 -30 -10 -49 2 -19 -2 -41 -8 -49 -8 -11 -8 -13 2 -7 7 4
12 1 12 -9 0 -9 -4 -13 -10 -10 -5 3 -8 0 -5 -7 4 -11 -430 -13 -2419 -13
l-2425 0 3 28 c2 15 -1 30 -5 33 -5 3 -7 10 -3 15 8 14 11 119 2 119 -4 0 -4
10 0 23 5 12 7 38 5 57 -4 49 -4 49 -1 108 2 28 0 52 -4 52 -4 0 -4 10 0 22 5
13 7 39 5 58 -4 48 -4 48 -1 113 2 31 -1 57 -5 57 -5 0 -5 5 -1 12 11 17 12
78 2 84 -5 3 -5 10 -2 16 9 15 11 139 2 145 -5 2 -5 9 -2 15 9 14 11 198 2
198 -4 0 -4 10 0 23 5 12 7 38 5 57 -4 49 -4 49 -1 108 2 28 0 52 -4 52 -4 0
-4 10 0 23 5 12 7 38 5 57 -4 48 -4 48 -1 113 2 31 -1 57 -5 57 -5 0 -5 5 -1
12 10 15 11 138 2 138 -4 0 -4 10 0 23 5 12 7 38 5 57 -4 49 -4 49 -1 108 2
28 0 52 -4 52 -4 0 -4 10 0 23 5 12 7 38 5 57 -4 48 -4 48 -1 113 2 31 -1 57
-6 57 -5 0 -5 6 0 13 5 6 8 28 7 47 -3 44 -3 53 -2 115 0 28 0 59 0 70 0 11
-1 56 -1 100 0 44 0 86 0 93 -1 56 0 94 3 205 1 49 -1 91 -6 94 -4 2 -4 9 -1
15 9 15 11 139 2 145 -5 2 -5 9 -2 15 9 14 11 198 2 198 -4 0 -4 10 0 23 5 12
7 38 5 57 -4 49 -4 49 -1 108 2 28 0 52 -4 52 -4 0 -4 10 0 23 5 12 7 38 5 57
-4 48 -4 48 -1 113 2 31 -1 57 -5 57 -5 0 -5 5 -1 12 11 17 12 78 2 84 -5 3
-5 10 -2 16 9 14 11 139 2 144 -4 3 -4 15 0 27 4 12 6 47 5 77 -3 67 -3 73 -2
135 0 28 0 59 0 70 0 11 -1 56 -1 100 0 44 0 86 0 93 -1 53 0 94 3 239 1 62
-1 113 -5 113 -4 0 -4 10 0 23 5 12 7 38 5 57 -3 42 -3 43 -2 105 0 28 0 59 0
70 -1 11 0 48 2 83 1 34 -2 62 -7 62 -5 0 -4 6 1 13 5 6 9 39 8 72 -1 69 13
95 33 61 l13 -21 -4 22 c-3 15 -1 20 9 16 8 -3 11 -9 8 -14 -3 -5 5 -5 18 0
13 4 36 6 51 4 21 -3 27 0 22 9 -4 7 3 2 14 -11 18 -19 21 -20 21 -6 0 15 3
15 15 5 13 -11 14 -10 8 6 -5 15 -4 17 8 8 8 -6 26 -11 42 -10 17 1 26 -3 23
-10 -5 -13 19 -13 31 1 4 4 2 5 -4 1 -7 -4 -13 -3 -13 3 0 6 16 10 35 9 19 -1
35 -5 35 -10 0 -5 -4 -6 -10 -3 -5 3 -10 1 -10 -4 0 -12 35 -9 47 4 5 4 2 5
-5 1 -6 -4 -12 -3 -12 3 0 6 16 10 35 9 19 -1 35 -5 35 -10 0 -5 -4 -6 -10 -3
-5 3 -10 1 -10 -4 0 -12 35 -9 47 4 5 4 2 5 -4 1 -7 -4 -13 -3 -13 3 0 6 16
10 35 9 19 -1 35 -5 35 -10 0 -5 -4 -6 -10 -3 -5 3 -10 1 -10 -4 0 -12 35 -9
47 4 5 4 2 5 -4 1 -7 -4 -13 -3 -13 3 0 6 16 10 35 9 19 -1 35 -5 35 -10 0 -5
-4 -6 -10 -3 -5 3 -10 1 -10 -4 0 -12 35 -9 47 4 5 4 2 5 -4 1 -7 -4 -13 -3
-13 3 0 6 16 10 35 9 19 -1 35 -5 35 -10 0 -5 -4 -6 -10 -3 -5 3 -10 1 -10 -4
0 -12 35 -9 47 4 5 4 2 5 -4 1 -7 -4 -13 -3 -13 3 0 6 16 10 35 9 19 -1 35 -6
35 -12 0 -6 4 -5 9 2 5 9 23 11 59 8 32 -3 52 -1 52 5 0 6 6 7 13 3 6 -4 9 -3
4 1 -4 5 1 18 10 29 17 20 17 20 1 7 -16 -12 -18 -11 -18 8 0 14 4 20 12 15 7
-5 8 -3 2 7 -14 24 -16 51 -2 43 10 -6 10 -5 1 8 -7 8 -10 18 -6 21 3 4 0 14
-8 24 -11 13 -11 15 -1 9 11 -6 12 0 8 29 -5 27 -3 34 6 29 10 -6 10 -5 1 8
-7 8 -10 18 -6 21 3 4 0 14 -8 24 -11 13 -11 15 -1 9 11 -6 12 0 8 29 -5 27
-3 34 6 29 10 -6 10 -5 1 8 -7 8 -10 18 -6 21 3 4 0 14 -8 24 -11 13 -11 15
-1 9 11 -6 12 0 8 29 -5 27 -3 34 6 29 10 -6 10 -5 1 8 -7 8 -10 18 -6 21 3 4
0 14 -8 24 -11 13 -11 15 -1 9 11 -6 12 0 8 29 -5 27 -3 34 6 29 10 -6 10 -4
2 7 -6 8 -10 55 -9 106 1 82 -1 91 -17 88 -10 -2 -18 -1 -18 3 0 10 -42 8 -58
-2 -7 -4 -12 -2 -12 4 0 7 -7 7 -22 -1 -16 -9 -23 -9 -26 -1 -3 9 -9 9 -23 2
-13 -8 -19 -7 -19 0 0 8 -6 8 -20 0 -14 -8 -20 -8 -20 0 0 8 -6 8 -20 0 -12
-6 -20 -7 -20 -1 0 6 -11 6 -30 1 -17 -5 -30 -5 -30 0 0 10 -19 8 -37 -3 -8
-5 -13 -3 -13 3 0 6 -5 8 -11 5 -17 -11 -59 -13 -59 -3 0 5 -9 4 -20 -2 -12
-6 -20 -7 -20 -1 0 10 -19 9 -37 -2 -8 -5 -13 -3 -13 3 0 6 -5 8 -11 5 -18
-12 -59 -13 -59 -1 0 6 -5 4 -10 -4 -7 -11 -10 -11 -10 -2 0 10 -5 10 -20 2
-14 -8 -20 -8 -20 0 0 8 -6 8 -20 0 -14 -8 -20 -8 -20 0 0 8 -6 8 -20 0 -11
-6 -20 -7 -20 -3 0 10 -41 10 -58 -1 -7 -4 -12 -2 -12 4 0 6 -5 8 -11 5 -16
-10 -59 -13 -59 -5 0 10 -20 8 -37 -3 -8 -5 -13 -3 -13 3 0 6 -5 8 -11 5 -16
-10 -59 -13 -59 -5 0 10 -20 8 -37 -3 -8 -5 -13 -3 -13 3 0 7 -7 7 -22 -1 -16
-9 -23 -9 -26 -1 -3 9 -9 9 -23 2 -13 -8 -19 -7 -19 0 0 8 -6 8 -20 0 -14 -8
-20 -8 -20 0 0 8 -6 8 -20 0 -12 -6 -20 -7 -20 -1 0 6 -11 6 -30 1 -16 -5 -30
-5 -30 0 0 10 -19 8 -37 -3 -8 -5 -13 -3 -13 3 0 6 -5 8 -11 5 -17 -11 -59
-13 -59 -3 0 5 -9 4 -20 -2 -12 -6 -20 -7 -20 -1 0 10 -19 9 -37 -2 -8 -5 -13
-3 -13 3 0 6 -5 8 -11 5 -18 -12 -59 -13 -59 -1 0 6 -5 4 -10 -4 -7 -11 -10
-11 -10 -2 0 10 -5 10 -20 2 -14 -8 -20 -8 -20 0 0 7 -6 8 -19 0 -11 -5 -21
-6 -23 -2 -2 4 -10 6 -19 4z"/>
<path d="M7455 7539 c-4 -6 -5 -12 -2 -15 2 -3 7 2 10 11 7 17 1 20 -8 4z"/>
<path d="M7614 7539 c-3 -6 -1 -16 5 -22 9 -9 10 -7 5 7 -6 15 -4 17 6 11 9
-5 11 -4 6 3 -9 15 -13 15 -22 1z"/>
<path d="M7855 7539 c-4 -6 -4 -13 -1 -16 3 -4 6 -1 6 6 0 7 5 9 12 5 7 -4 8
-3 4 4 -9 15 -13 15 -21 1z"/>
<path d="M8339 7548 c-6 -12 -4 -46 2 -42 4 2 5 12 2 21 -5 12 -3 14 7 8 9 -5
11 -4 6 3 -7 11 -14 15 -17 10z"/>
<path d="M8815 7539 c-4 -6 -4 -13 -1 -16 3 -4 6 -1 6 6 0 7 5 9 12 5 7 -4 8
-3 4 4 -9 15 -13 15 -21 1z"/>
<path d="M7684 7524 c-18 -14 -18 -15 4 -4 12 6 22 13 22 15 0 8 -5 6 -26 -11z"/>
<path d="M7930 7530 c-11 -7 -11 -10 -2 -10 8 0 10 -5 6 -12 -4 -7 -3 -9 1 -5
7 6 17 37 12 37 -1 0 -9 -5 -17 -10z"/>
<path d="M8166 7531 c-19 -7 -19 -8 0 -13 13 -3 21 0 21 8 0 8 -1 14 -1 13 -1
0 -10 -4 -20 -8z"/>
<path d="M8406 7527 c-16 -12 -16 -13 2 -13 10 0 19 6 19 13 0 7 -1 13 -2 13
-1 0 -9 -6 -19 -13z"/>
<path d="M8645 7530 c-16 -7 -17 -9 -3 -9 9 -1 20 4 23 9 7 11 7 11 -20 0z"/>
<path d="M9180 7536 c0 -2 8 -10 18 -17 15 -13 16 -12 3 4 -13 16 -21 21 -21
13z"/>
<path d="M7536 7513 c-6 -14 -5 -15 5 -6 7 7 10 15 7 18 -3 3 -9 -2 -12 -12z"/>
<path d="M7776 7513 c-6 -14 -5 -15 5 -6 7 7 10 15 7 18 -3 3 -9 -2 -12 -12z"/>
<path d="M8736 7513 c-6 -14 -5 -15 5 -6 7 7 10 15 7 18 -3 3 -9 -2 -12 -12z"/>
<path d="M8888 7523 c6 -2 9 -10 6 -15 -4 -7 -2 -8 5 -4 13 9 5 26 -12 25 -9
0 -8 -2 1 -6z"/>
<path d="M7875 7500 c3 -5 8 -10 11 -10 2 0 4 5 4 10 0 6 -5 10 -11 10 -5 0
-7 -4 -4 -10z"/>
<path d="M8835 7500 c3 -5 8 -10 11 -10 2 0 4 5 4 10 0 6 -5 10 -11 10 -5 0
-7 -4 -4 -10z"/>
<path d="M9310 7500 c0 -5 5 -10 11 -10 5 0 7 5 4 10 -3 6 -8 10 -11 10 -2 0
-4 -4 -4 -10z"/>
<path d="M7396 7478 c3 -5 10 -6 15 -3 13 9 11 12 -6 12 -8 0 -12 -4 -9 -9z"/>
<path d="M7636 7478 c3 -5 10 -6 15 -3 13 9 11 12 -6 12 -8 0 -12 -4 -9 -9z"/>
<path d="M8436 7478 c3 -5 10 -6 15 -3 13 9 11 12 -6 12 -8 0 -12 -4 -9 -9z"/>
<path d="M8631 7130 c-7 -4 -9 -15 -5 -25 6 -14 4 -16 -6 -10 -10 6 -11 4 -4
-6 13 -21 14 -39 2 -39 -6 0 -4 -7 3 -17 12 -15 12 -16 -1 -8 -12 7 -13 6 -3
-6 10 -12 10 -18 0 -28 -7 -7 -8 -14 -2 -19 12 -8 13 -32 2 -49 -4 -6 -3 -14
3 -18 6 -4 7 -12 0 -24 -6 -12 -5 -22 1 -28 7 -7 7 -13 1 -17 -7 -4 -7 -17 -2
-35 5 -19 4 -33 -3 -40 -8 -8 -8 -11 0 -11 12 0 10 -30 -2 -50 -3 -6 -1 -10 4
-10 6 0 11 -5 11 -11 0 -5 -4 -8 -8 -5 -10 6 -9 -30 1 -40 10 -10 9 -26 -1
-20 -4 2 -8 -4 -8 -14 0 -10 4 -16 8 -14 13 8 9 -11 -4 -25 -11 -11 -10 -12 2
-6 13 8 13 7 1 -8 -8 -10 -9 -17 -3 -17 11 0 9 -51 -3 -70 -3 -5 -1 -10 4 -10
6 0 11 -5 11 -11 0 -5 -4 -8 -8 -5 -10 6 -9 -30 1 -40 10 -10 9 -26 -1 -20 -4
2 -8 -4 -8 -14 0 -10 4 -16 8 -14 13 8 9 -11 -4 -25 -11 -11 -10 -12 2 -6 13
8 13 7 1 -8 -8 -10 -9 -17 -3 -17 11 0 9 -51 -3 -70 -3 -5 -1 -10 4 -10 6 0
11 -5 11 -11 0 -5 -4 -8 -8 -5 -4 2 -8 -4 -8 -14 0 -10 4 -17 7 -14 9 5 5 -43
-4 -53 -4 -3 -2 -12 4 -19 7 -8 7 -14 -1 -19 -8 -5 -8 -10 0 -20 7 -8 7 -15 1
-19 -6 -4 -6 -18 -1 -35 5 -19 4 -33 -3 -40 -8 -8 -8 -11 0 -11 12 0 12 -25 0
-36 -4 -4 -2 -13 4 -20 6 -8 6 -14 0 -18 -6 -4 -6 -18 -1 -35 5 -19 4 -33 -3
-40 -6 -6 -7 -11 -1 -11 5 0 10 -9 11 -20 1 -11 -2 -18 -6 -16 -4 3 -8 -1 -8
-9 0 -8 4 -15 8 -15 9 0 4 -53 -6 -70 -3 -5 -1 -10 4 -10 6 0 11 -5 11 -11 0
-5 -4 -8 -8 -5 -4 2 -8 -4 -8 -14 0 -10 4 -16 8 -14 12 8 9 -11 -4 -24 -9 -9
-9 -12 0 -12 7 0 12 -5 12 -11 0 -5 -5 -7 -12 -3 -7 5 -8 3 -3 -6 10 -16 14
-101 5 -95 -4 2 -7 -2 -7 -10 0 -8 5 -11 11 -8 6 4 5 -1 -3 -10 -8 -10 -9 -17
-3 -17 11 0 9 -51 -3 -70 -3 -5 -1 -10 4 -10 6 0 11 -5 11 -11 0 -5 -4 -8 -8
-5 -10 6 -9 -30 1 -40 10 -10 9 -26 -1 -20 -5 3 -9 -1 -9 -9 0 -8 5 -15 10
-15 5 0 6 -8 2 -17 -10 -23 -10 -33 -1 -62 5 -14 4 -21 -1 -18 -5 4 -10 0 -10
-8 0 -8 5 -11 11 -8 6 4 5 -1 -3 -10 -8 -10 -9 -17 -3 -17 11 0 9 -51 -3 -70
-3 -5 -1 -10 4 -10 6 0 11 -5 11 -11 0 -5 -4 -8 -8 -5 -4 2 -8 -4 -8 -14 0
-10 4 -16 8 -14 12 8 9 -11 -4 -24 -9 -9 -9 -12 0 -12 7 0 12 -5 12 -11 0 -5
-5 -7 -12 -3 -7 5 -8 3 -3 -6 10 -16 14 -101 5 -95 -4 2 -7 -2 -7 -10 0 -8 5
-11 11 -8 6 4 5 -1 -3 -10 -8 -10 -9 -17 -3 -17 11 0 9 -51 -3 -70 -3 -5 -1
-10 4 -10 6 0 11 -5 11 -11 0 -5 -4 -8 -8 -5 -10 6 -9 -30 1 -40 10 -10 9 -26
-1 -20 -5 3 -9 -1 -9 -9 0 -8 5 -15 10 -15 5 0 6 -8 2 -18 -10 -22 -10 -32 -1
-61 5 -14 4 -21 -1 -18 -11 7 -11 -23 0 -40 4 -6 3 -14 -2 -17 -6 -4 -6 -18
-1 -35 5 -19 4 -33 -3 -40 -8 -8 -8 -11 0 -11 12 0 12 -25 0 -36 -4 -4 -2 -13
4 -20 6 -8 6 -14 0 -18 -6 -4 -6 -18 -1 -35 5 -19 4 -33 -3 -40 -8 -8 -8 -11
0 -11 12 0 10 -30 -2 -50 -3 -6 -1 -10 4 -10 6 0 11 -5 11 -11 0 -5 -4 -8 -8
-5 -10 6 -9 -30 1 -40 10 -10 9 -26 -1 -20 -4 2 -8 -4 -8 -14 0 -10 4 -16 8
-14 13 8 9 -11 -4 -25 -11 -11 -10 -12 2 -6 13 8 13 7 1 -8 -8 -10 -9 -17 -3
-17 11 0 9 -51 -3 -70 -3 -5 -1 -10 4 -10 6 0 11 -5 11 -11 0 -5 -4 -8 -8 -5
-10 6 -9 -30 1 -40 10 -10 9 -26 -1 -20 -4 2 -8 -4 -8 -14 0 -10 4 -16 8 -14
13 8 9 -11 -4 -25 -11 -11 -10 -12 2 -6 13 8 13 7 1 -8 -8 -10 -9 -17 -3 -17
11 0 9 -51 -3 -70 -3 -5 -1 -10 4 -10 6 0 11 -5 11 -11 0 -5 -4 -8 -8 -5 -4 2
-8 -4 -8 -14 0 -10 4 -17 7 -14 9 5 5 -37 -4 -53 -4 -6 -3 -15 3 -18 8 -5 7
-11 -1 -22 -8 -9 -9 -17 -3 -21 5 -4 10 -11 11 -17 1 -7 -746 -10 -2225 -9
l-2227 1 -30 -24 c-16 -12 -39 -31 -51 -40 -11 -10 -26 -19 -34 -21 -8 -2 -22
-13 -32 -24 -10 -12 -18 -18 -18 -14 0 4 -6 1 -14 -6 -8 -7 -58 -53 -112 -103
-151 -140 -181 -172 -290 -305 -16 -19 -31 -37 -34 -40 -20 -19 -100 -121
-115 -147 -10 -18 -23 -29 -28 -26 -6 3 -7 1 -3 -5 3 -6 2 -13 -4 -17 -15 -9
-12 -19 11 -33 12 -8 18 -9 14 -3 -3 6 -1 11 4 11 6 0 11 -3 11 -7 0 -5 11 -8
25 -8 18 0 24 4 20 15 -3 9 1 7 10 -4 8 -10 12 -22 10 -27 -3 -4 0 -11 7 -15
7 -4 10 -4 6 1 -4 4 -2 15 5 23 10 13 9 14 -3 7 -12 -6 -13 -6 -2 6 11 12 14
12 21 0 6 -8 14 -10 22 -5 21 13 39 14 39 2 0 -6 7 -4 17 3 11 10 14 10 9 2
-8 -14 6 -18 18 -6 9 9 57 12 51 3 -2 -3 6 -12 18 -19 18 -11 20 -11 10 0 -17
17 -16 26 2 26 8 0 12 -4 9 -9 -3 -4 0 -8 6 -8 6 0 9 -4 5 -9 -3 -5 -1 -12 4
-16 6 -3 8 3 6 15 -2 11 0 22 6 25 5 4 9 1 9 -5 0 -6 4 -9 9 -5 5 3 13 0 16
-5 5 -8 13 -6 26 6 17 16 19 16 19 1 0 -10 -5 -17 -12 -17 -6 0 -8 -3 -4 -7 4
-4 16 3 27 17 15 20 21 22 28 11 12 -18 41 -24 35 -7 -3 7 2 13 10 13 8 0 13
-3 11 -7 -2 -3 6 -12 18 -19 18 -11 20 -11 10 0 -17 17 -16 26 2 26 8 0 12 -4
9 -9 -3 -4 0 -8 6 -8 6 0 9 -4 5 -9 -3 -5 0 -13 7 -17 7 -4 10 -4 6 1 -4 4 -2
15 5 23 10 13 9 14 -3 7 -12 -6 -13 -6 -2 6 11 12 14 12 21 0 6 -8 14 -10 22
-5 21 13 39 14 39 2 0 -6 7 -4 17 3 11 10 14 10 9 2 -8 -14 6 -18 18 -6 9 9
57 12 51 3 -2 -3 6 -12 18 -19 18 -11 20 -11 10 0 -17 17 -16 26 2 26 8 0 12
-4 9 -9 -3 -4 0 -8 6 -8 6 0 9 -4 5 -9 -3 -5 -1 -12 4 -16 6 -3 8 3 6 15 -2
11 0 22 6 25 5 4 9 1 9 -5 0 -6 4 -9 9 -5 5 3 13 0 16 -5 5 -8 13 -6 26 6 17
16 19 16 19 1 0 -10 -5 -17 -12 -17 -6 0 -8 -3 -4 -7 4 -4 16 3 27 17 15 20
21 22 28 11 12 -18 41 -24 35 -7 -3 7 2 13 10 13 8 0 13 -3 11 -7 -2 -3 6 -12
18 -19 18 -11 20 -11 10 0 -17 17 -16 26 2 26 8 0 12 -4 9 -9 -3 -4 0 -8 6 -8
6 0 9 -4 5 -9 -3 -5 0 -13 7 -17 7 -4 10 -4 6 1 -4 4 -2 15 5 23 10 13 9 14
-3 7 -12 -6 -13 -6 -2 6 11 12 14 12 21 0 6 -8 14 -10 22 -5 21 13 39 14 39 2
0 -6 7 -4 17 3 11 10 14 10 9 2 -8 -14 6 -18 18 -6 9 9 57 12 51 3 -2 -3 6
-12 18 -19 18 -11 20 -11 10 0 -17 17 -16 26 2 26 8 0 12 -4 9 -9 -3 -4 0 -8
6 -8 6 0 9 -4 5 -9 -3 -5 -1 -12 4 -16 6 -3 8 3 6 15 -2 11 0 22 6 25 5 4 9 1
9 -6 0 -7 3 -9 7 -6 3 4 12 2 19 -4 8 -7 14 -6 20 2 4 8 3 9 -4 5 -7 -4 -12
-2 -12 3 0 14 17 14 25 1 4 -6 12 -7 18 -3 7 4 22 8 35 9 20 1 28 -12 23 -40
-1 -5 4 -4 12 2 8 7 18 8 22 4 5 -4 5 -1 1 6 -4 6 -2 12 4 12 6 0 9 4 6 8 -3
5 2 9 10 9 9 0 13 -6 9 -15 -4 -11 -2 -12 8 -4 10 8 17 8 24 1 8 -8 13 -7 18
2 5 8 4 10 -3 5 -7 -4 -12 -3 -12 2 0 15 58 7 78 -12 16 -13 19 -14 19 -1 0 8
-4 12 -9 9 -4 -3 -8 -1 -8 3 0 5 20 9 45 8 25 0 45 -4 45 -8 0 -5 5 -5 10 -2
6 3 14 -5 20 -19 12 -32 15 -33 15 -2 0 13 -3 22 -7 19 -5 -2 -8 1 -8 6 0 14
17 14 25 1 4 -6 12 -7 18 -3 19 12 57 11 57 -2 0 -6 -6 -17 -12 -25 -11 -12
-10 -12 4 -1 19 14 42 6 32 -11 -5 -7 -2 -8 5 -4 9 6 8 12 -4 26 -11 12 -13
20 -6 25 6 3 11 1 11 -5 0 -6 5 -8 10 -5 6 3 14 -5 20 -19 12 -32 15 -33 15
-2 0 13 -3 22 -7 19 -5 -2 -8 1 -8 6 0 14 17 14 25 1 4 -6 12 -7 18 -3 19 12
57 11 57 -2 0 -6 -6 -17 -12 -25 -11 -12 -10 -12 4 -1 19 14 42 6 32 -11 -5
-7 -2 -8 5 -4 9 6 8 12 -4 26 -11 12 -13 20 -6 25 6 3 11 1 11 -5 0 -6 5 -8
10 -5 6 3 14 -5 20 -19 12 -32 15 -33 15 -2 0 13 -3 22 -7 19 -5 -2 -8 1 -8 6
0 14 17 14 25 1 4 -6 12 -7 18 -3 19 12 57 11 57 -2 0 -6 -6 -17 -12 -25 -11
-12 -10 -12 4 -1 19 14 42 6 32 -11 -5 -7 -2 -8 5 -4 9 6 8 12 -4 26 -11 12
-13 20 -6 25 6 3 11 1 11 -5 0 -6 5 -8 10 -5 6 3 14 -5 20 -19 12 -32 15 -33
15 -2 0 13 -3 22 -7 19 -5 -2 -8 1 -8 6 0 14 17 14 25 1 4 -6 12 -7 18 -3 19
12 57 11 57 -2 0 -6 -6 -17 -12 -25 -11 -12 -10 -12 4 -1 19 14 42 6 32 -11
-5 -7 -2 -8 5 -4 9 6 8 12 -4 26 -11 12 -13 20 -6 25 6 3 11 1 11 -5 0 -6 5
-8 10 -5 6 3 14 -5 20 -19 12 -32 15 -33 15 -2 0 13 -3 22 -7 19 -5 -2 -8 1
-8 6 0 14 17 14 25 1 4 -6 12 -7 18 -3 19 12 57 11 57 -2 0 -6 -6 -17 -12 -25
-11 -12 -10 -12 4 -1 19 14 42 6 32 -11 -5 -7 -2 -8 5 -4 9 6 8 12 -4 26 -11
12 -13 20 -6 25 6 3 11 1 11 -5 0 -6 5 -8 10 -5 6 3 14 -5 20 -19 12 -32 15
-33 15 -2 0 13 -3 22 -7 19 -5 -2 -8 1 -8 6 0 14 17 14 25 1 4 -6 12 -7 18 -3
19 12 57 11 57 -2 0 -6 -6 -17 -12 -25 -11 -12 -10 -12 4 -1 19 14 42 6 32
-11 -5 -7 -2 -8 5 -4 9 6 8 12 -4 26 -11 12 -13 20 -6 25 6 3 11 1 11 -5 0 -6
5 -8 10 -5 6 3 14 -5 20 -19 12 -32 15 -33 15 -2 0 13 -3 22 -7 19 -5 -2 -8 1
-8 6 0 14 17 14 25 1 4 -6 12 -7 18 -3 19 12 57 11 57 -2 0 -6 -6 -17 -12 -25
-11 -12 -10 -12 4 -1 19 14 42 6 32 -11 -5 -7 -2 -8 5 -4 9 6 8 12 -4 26 -11
12 -13 20 -6 25 6 3 11 1 11 -5 0 -6 5 -8 10 -5 6 3 14 -5 20 -19 12 -32 15
-33 15 -2 0 13 -3 22 -7 19 -5 -2 -8 1 -8 6 0 14 17 14 25 1 4 -6 12 -7 18 -3
19 12 57 11 57 -2 0 -6 -6 -17 -12 -25 -11 -12 -10 -12 4 -1 19 14 42 6 32
-11 -5 -7 -2 -8 5 -4 9 6 8 12 -4 26 -11 12 -13 20 -6 25 6 3 11 1 11 -5 0 -6
5 -8 10 -5 6 3 14 -5 20 -19 12 -32 15 -33 15 -2 0 13 -3 22 -7 19 -5 -2 -8 1
-8 6 0 14 17 14 25 1 4 -6 12 -7 18 -3 19 12 57 11 57 -2 0 -6 -6 -17 -12 -25
-11 -12 -10 -12 4 -1 19 14 42 6 32 -11 -5 -7 -2 -8 5 -4 9 6 8 12 -4 26 -11
12 -13 20 -6 25 6 3 11 1 11 -5 0 -6 5 -8 10 -5 6 3 14 -5 20 -19 12 -32 15
-33 15 -2 0 13 -3 22 -7 19 -5 -2 -8 1 -8 6 0 14 17 14 25 1 4 -6 12 -7 18 -3
19 12 57 11 57 -2 0 -6 -6 -17 -12 -25 -11 -12 -10 -12 4 -1 19 14 42 6 32
-11 -5 -7 -2 -8 5 -4 9 6 8 12 -4 26 -11 12 -13 20 -6 25 6 3 11 1 11 -5 0 -6
5 -8 10 -5 6 3 14 -5 20 -19 12 -32 15 -33 15 -2 0 13 -3 22 -7 19 -5 -2 -8 1
-8 6 0 14 17 14 25 1 4 -6 12 -7 18 -3 19 12 57 11 57 -2 0 -6 -6 -17 -12 -25
-11 -12 -10 -12 4 -1 19 14 42 6 32 -11 -5 -7 -2 -8 5 -4 9 6 8 12 -4 26 -11
12 -13 20 -6 25 6 3 11 1 11 -5 0 -6 5 -8 10 -5 6 3 14 -5 20 -19 12 -32 15
-33 15 -2 0 13 -3 22 -7 19 -5 -2 -8 1 -8 6 0 14 17 14 25 1 4 -6 12 -7 18 -3
19 12 57 11 57 -2 0 -6 -6 -17 -12 -25 -11 -12 -10 -12 4 -1 19 14 42 6 32
-11 -5 -7 -2 -8 5 -4 9 6 8 12 -4 26 -11 12 -13 20 -6 25 6 3 11 1 11 -5 0 -6
5 -8 10 -5 6 3 14 -5 20 -19 12 -32 15 -33 15 -2 0 13 -3 22 -7 19 -5 -2 -8 1
-8 6 0 14 17 14 25 1 4 -6 12 -7 18 -3 19 12 57 11 57 -2 0 -6 -6 -17 -12 -25
-11 -12 -10 -12 4 -1 19 14 42 6 32 -11 -5 -7 -2 -8 5 -4 9 6 8 12 -4 26 -11
12 -13 20 -6 25 6 3 11 1 11 -5 0 -6 5 -8 10 -5 6 3 14 -5 20 -19 12 -32 15
-33 15 -2 0 13 -3 22 -7 19 -5 -2 -8 1 -8 6 0 14 17 14 25 1 4 -6 12 -7 18 -3
19 12 57 11 57 -2 0 -6 -6 -17 -12 -25 -11 -12 -10 -12 4 -1 19 14 42 6 32
-11 -5 -7 -2 -8 5 -4 9 6 8 12 -4 26 -11 12 -13 20 -6 25 6 3 11 1 11 -5 0 -6
5 -8 10 -5 6 3 14 -5 20 -19 12 -32 15 -33 15 -2 0 13 -3 22 -7 19 -5 -2 -8 1
-8 6 0 14 17 14 25 1 4 -6 12 -7 18 -3 19 12 57 11 57 -2 0 -6 -6 -17 -12 -25
-11 -12 -10 -12 4 -1 19 14 42 6 32 -11 -5 -7 -2 -8 5 -4 9 6 8 12 -4 26 -11
12 -13 20 -6 25 6 3 11 1 11 -5 0 -6 5 -8 10 -5 6 3 14 -5 20 -19 12 -32 15
-33 15 -2 0 13 -3 22 -7 19 -5 -2 -8 1 -8 6 0 14 17 14 25 1 4 -6 12 -7 18 -3
19 12 57 11 57 -2 0 -6 -6 -17 -12 -24 -11 -11 -9 -11 9 0 11 7 19 18 17 24
-3 6 2 12 10 12 8 0 13 -3 11 -7 -2 -3 6 -12 18 -19 18 -11 20 -11 10 0 -17
17 -16 26 2 26 8 0 12 -4 9 -9 -3 -4 0 -8 6 -8 6 0 9 -4 5 -9 -3 -5 -1 -12 4
-16 6 -3 8 3 6 15 -2 11 0 22 6 25 5 4 9 1 9 -5 0 -6 4 -9 9 -5 5 3 13 0 16
-5 5 -8 13 -6 26 6 17 16 19 16 19 1 0 -10 -5 -17 -12 -17 -6 0 -8 -3 -4 -7 4
-4 16 3 27 17 15 20 21 22 28 11 12 -18 41 -24 35 -7 -3 7 2 13 10 13 8 0 13
-3 11 -7 -2 -3 6 -12 18 -19 18 -11 20 -11 10 0 -17 17 -16 26 2 26 8 0 12 -4
9 -9 -3 -4 0 -8 6 -8 6 0 9 -4 5 -9 -3 -5 0 -13 7 -17 7 -4 10 -4 6 1 -4 4 -2
15 5 23 10 13 9 14 -3 7 -12 -6 -13 -6 -2 6 11 12 14 12 21 0 6 -8 14 -10 22
-5 21 13 39 14 39 2 0 -6 7 -4 17 3 11 10 14 10 9 2 -8 -14 6 -18 18 -6 9 9
57 12 51 3 -2 -3 6 -12 18 -19 18 -11 20 -11 10 0 -17 17 -16 26 2 26 8 0 12
-4 9 -9 -3 -4 0 -8 6 -8 6 0 9 -4 5 -9 -3 -5 -1 -12 4 -16 6 -3 8 3 6 15 -2
11 0 22 6 25 5 4 9 1 9 -5 0 -6 4 -9 9 -5 5 3 13 0 16 -5 5 -8 13 -6 26 6 17
16 19 16 19 1 0 -10 -5 -17 -12 -17 -6 0 -8 -3 -4 -7 4 -4 16 3 27 17 15 20
21 22 28 11 12 -18 41 -24 35 -7 -3 7 2 13 10 13 8 0 13 -3 11 -7 -2 -3 6 -12
18 -19 18 -11 20 -11 10 0 -17 17 -16 26 2 26 8 0 12 -4 9 -9 -3 -4 0 -8 6 -8
6 0 9 -4 5 -9 -3 -5 0 -13 7 -17 7 -4 10 -4 6 1 -4 4 -2 15 5 23 10 13 9 14
-3 7 -12 -6 -13 -6 -2 6 11 12 14 12 21 0 6 -8 14 -10 22 -5 21 13 39 14 39 2
0 -6 7 -4 17 3 11 10 14 10 9 2 -8 -14 6 -18 18 -6 9 9 57 12 51 3 -2 -3 6
-12 18 -19 18 -11 20 -11 10 0 -17 17 -16 26 2 26 8 0 12 -4 9 -9 -3 -4 0 -8
6 -8 6 0 9 -4 5 -9 -3 -5 -1 -12 4 -16 6 -3 8 3 6 15 -2 11 0 22 6 25 5 4 9 1
9 -5 0 -6 4 -9 9 -5 5 3 13 0 16 -5 5 -8 13 -6 26 6 17 16 19 16 19 1 0 -10
-5 -17 -12 -17 -6 0 -8 -3 -4 -7 4 -4 16 3 27 17 15 20 21 22 28 11 12 -18 41
-24 35 -7 -3 7 2 13 10 13 8 0 13 -3 11 -7 -2 -3 6 -12 18 -19 18 -11 20 -11
10 0 -17 17 -16 26 2 26 8 0 12 -4 9 -9 -3 -4 0 -8 6 -8 6 0 9 -4 5 -9 -3 -5
0 -13 7 -17 7 -4 10 -4 6 1 -4 4 -2 15 5 23 10 13 9 14 -3 7 -12 -6 -13 -6 -2
6 11 12 14 12 21 0 6 -8 14 -10 22 -5 21 13 39 14 39 2 0 -6 7 -4 17 3 11 10
14 10 9 2 -8 -14 6 -18 18 -6 9 9 57 12 51 3 -2 -3 6 -12 18 -19 18 -11 20
-11 10 0 -17 17 -16 26 2 26 8 0 12 -4 9 -9 -3 -4 0 -8 6 -8 6 0 9 -4 5 -9 -3
-5 -1 -12 4 -16 6 -3 8 3 6 15 -2 11 0 22 6 25 5 4 9 1 9 -6 0 -7 3 -9 7 -6 3
4 12 2 19 -4 8 -7 14 -6 20 2 4 8 3 9 -4 5 -7 -4 -12 -2 -12 3 0 14 17 14 25
1 4 -6 12 -7 18 -3 18 11 47 11 47 0 0 -5 6 -4 14 2 10 8 16 9 21 1 3 -5 11
-10 16 -10 6 0 7 6 3 12 -6 10 -5 10 7 1 13 -10 19 -10 35 3 10 8 14 13 9 11
-14 -7 -14 285 0 295 7 5 7 8 -1 8 -11 0 -12 75 -1 86 3 4 3 12 0 18 -11 16
-11 56 -1 62 4 3 5 11 1 17 -10 17 -11 97 -1 103 5 3 5 11 1 17 -12 18 -10
161 2 169 7 5 7 8 -1 8 -11 0 -12 69 -1 87 4 6 3 14 -1 17 -10 6 -10 46 1 63
4 6 4 14 -1 16 -10 7 -9 208 1 224 4 6 3 14 -1 17 -10 6 -10 46 1 62 3 6 3 14
-1 18 -11 12 -9 280 3 288 7 5 7 8 -1 8 -11 0 -12 69 -1 87 4 6 3 14 -1 17
-10 6 -10 46 1 63 4 6 4 14 -1 17 -10 6 -9 86 0 102 4 6 4 14 0 18 -11 12 -9
160 3 168 7 5 7 8 -1 8 -11 0 -12 69 -1 87 4 6 3 14 -1 17 -10 6 -10 46 1 63
4 6 4 14 -1 16 -10 7 -9 208 1 224 4 6 3 14 -1 17 -10 6 -10 46 1 62 3 6 3 14
-1 18 -11 12 -9 280 3 288 7 5 7 8 -1 8 -11 0 -12 69 -1 87 4 6 3 14 -1 17
-10 6 -10 46 1 63 4 6 4 14 -1 17 -10 6 -9 86 0 102 4 6 4 14 0 18 -11 12 -9
160 3 168 7 5 7 8 -1 8 -11 0 -12 75 -1 86 3 4 3 12 0 18 -11 16 -11 56 -1 62
4 3 5 11 1 17 -10 16 -11 217 -1 224 5 2 5 10 1 16 -11 17 -11 57 -1 63 4 3 5
11 1 17 -12 19 -10 287 2 287 7 0 7 3 0 8 -14 9 -13 75 0 84 6 5 6 8 -1 8 -14
0 -14 30 0 30 6 0 5 4 -2 9 -8 4 -14 12 -14 16 0 4 6 12 14 16 7 5 8 9 3 9 -6
0 -10 26 -10 63 1 34 -1 67 -3 74 -2 8 -107 11 -397 11 -216 -1 -398 -4 -404
-8z m-4801 -4464 c0 -3 -4 -8 -10 -11 -5 -3 -10 -1 -10 4 0 6 5 11 10 11 6 0
10 -2 10 -4z m480 0 c0 -3 -4 -8 -10 -11 -5 -3 -10 -1 -10 4 0 6 5 11 10 11 6
0 10 -2 10 -4z m582 -18 c-7 -7 -12 -8 -12 -2 0 6 3 14 7 17 3 4 9 5 12 2 2
-3 -1 -11 -7 -17z m2938 18 c0 -3 -4 -8 -10 -11 -5 -3 -10 -1 -10 4 0 6 5 11
10 11 6 0 10 -2 10 -4z m480 0 c0 -3 -4 -8 -10 -11 -5 -3 -10 -1 -10 4 0 6 5
11 10 11 6 0 10 -2 10 -4z m480 0 c0 -3 -4 -8 -10 -11 -5 -3 -10 -1 -10 4 0 6
5 11 10 11 6 0 10 -2 10 -4z"/>
<path d="M1875 7040 c-3 -5 -1 -10 4 -10 6 0 11 5 11 10 0 6 -2 10 -4 10 -3 0
-8 -4 -11 -10z"/>
<path d="M2390 7041 c0 -6 4 -13 10 -16 6 -3 7 1 4 9 -7 18 -14 21 -14 7z"/>
<path d="M2436 7041 c3 -3 21 -6 39 -6 19 -1 32 1 29 4 -3 3 -21 6 -39 6 -19
1 -32 -1 -29 -4z"/>
<path d="M1759 7028 c-5 -18 -6 -38 -1 -34 7 8 12 36 6 36 -2 0 -4 -1 -5 -2z"/>
<path d="M1900 7026 c0 -2 8 -10 18 -17 15 -13 16 -12 3 4 -13 16 -21 21 -21
13z"/>
<path d="M2455 7009 c-4 -6 -5 -12 -2 -15 2 -3 7 2 10 11 7 17 1 20 -8 4z"/>
<path d="M5825 6586 c2 -14 6 -30 11 -37 5 -8 3 -9 -5 -5 -9 6 -11 -1 -5 -29
5 -27 4 -36 -5 -31 -6 4 -11 2 -11 -3 0 -6 5 -11 11 -11 5 0 8 -4 4 -9 -3 -5
0 -13 5 -16 7 -5 5 -12 -7 -21 -13 -10 -14 -13 -4 -14 8 0 12 -3 9 -6 -4 -3
-2 -19 2 -35 6 -18 5 -31 -2 -35 -6 -4 -8 -2 -4 4 3 6 2 13 -3 16 -11 7 -9
-13 2 -31 5 -7 6 -17 3 -22 -4 -5 0 -12 6 -14 8 -3 9 -6 2 -6 -8 -1 -10 -23
-8 -67 3 -48 1 -63 -7 -58 -8 5 -9 3 -3 -7 14 -24 16 -51 2 -43 -10 6 -10 5
-1 -7 6 -8 12 -32 11 -54 l0 -40 -102 -1 c-55 -1 -122 -4 -148 -7 -33 -4 -48
-2 -48 6 0 9 -2 9 -8 0 -4 -6 -32 -14 -62 -17 -102 -11 -158 -21 -265 -46 -27
-6 -60 -14 -72 -16 -12 -2 -33 -8 -47 -14 -13 -5 -27 -6 -30 -3 -3 4 -6 0 -6
-7 0 -7 -3 -10 -6 -7 -4 3 -16 1 -28 -5 -11 -7 -29 -11 -38 -9 -10 1 -18 -2
-18 -7 0 -5 -6 -9 -12 -10 -26 -1 -60 -11 -72 -20 -6 -5 -22 -13 -35 -17 -13
-4 -40 -14 -60 -23 -20 -9 -38 -16 -41 -17 -16 -3 -126 -61 -132 -70 -4 -5 -8
-6 -8 -2 0 5 -13 -1 -30 -13 -16 -12 -30 -18 -30 -15 0 4 -17 -7 -37 -24 -20
-16 -40 -28 -44 -26 -4 3 -12 -2 -19 -10 -7 -8 -16 -15 -21 -15 -10 0 -183
-122 -187 -132 -2 -5 -8 -8 -13 -8 -5 0 -25 -16 -44 -35 -19 -19 -35 -31 -35
-27 -1 4 -10 -4 -21 -18 -12 -14 -24 -25 -28 -24 -21 2 -391 -379 -391 -403 0
-2 -13 -18 -30 -36 -16 -18 -30 -36 -30 -41 0 -4 -11 -17 -25 -28 -14 -11 -25
-25 -25 -33 0 -7 -7 -18 -15 -25 -8 -7 -12 -16 -9 -21 3 -5 1 -9 -5 -9 -5 0
-20 -17 -32 -37 -13 -21 -27 -39 -31 -41 -4 -2 -8 -10 -8 -18 0 -8 -5 -14 -11
-14 -5 0 -7 -4 -4 -10 3 -5 1 -10 -4 -10 -6 0 -11 -4 -11 -9 0 -11 -61 -113
-72 -121 -3 -3 -10 -18 -13 -33 -4 -15 -11 -27 -15 -27 -4 0 -15 -20 -24 -45
-11 -27 -22 -42 -29 -38 -6 4 -8 0 -4 -11 4 -9 0 -24 -8 -34 -8 -9 -15 -20
-15 -25 0 -4 -7 -22 -17 -40 -9 -17 -18 -34 -18 -37 -1 -3 -6 -16 -12 -30 -6
-14 -10 -27 -9 -30 0 -3 -7 -16 -17 -30 -9 -13 -17 -32 -17 -42 0 -10 -5 -18
-12 -18 -6 0 -9 -3 -5 -6 3 -4 0 -21 -8 -39 -7 -19 -11 -36 -7 -39 3 -3 0 -6
-6 -6 -7 0 -12 -9 -12 -19 0 -11 -4 -22 -10 -26 -5 -3 -7 -12 -3 -20 3 -10 -1
-15 -13 -16 -11 0 -13 -3 -7 -6 10 -3 9 -11 -3 -34 -8 -16 -13 -33 -10 -37 2
-4 -4 -24 -14 -45 -10 -21 -17 -47 -15 -57 2 -11 -1 -20 -6 -20 -6 0 -7 -5 -4
-10 3 -5 2 -10 -3 -10 -5 0 -9 -8 -9 -17 1 -10 -4 -36 -11 -58 -18 -64 -28
-118 -31 -163 -1 -7 -5 -11 -9 -8 -5 3 -8 -13 -7 -34 1 -22 -1 -40 -5 -40 -4
0 -6 -11 -5 -25 2 -14 -1 -27 -5 -30 -5 -3 -7 -12 -3 -20 3 -8 1 -15 -3 -15
-5 0 -10 -19 -11 -43 -5 -91 -11 -145 -17 -156 -4 -6 -1 -11 6 -11 9 0 9 -3
-2 -10 -8 -5 -11 -10 -6 -10 5 0 2 -8 -5 -17 -10 -11 -10 -14 -1 -9 7 4 12 1
12 -9 0 -9 -4 -14 -8 -11 -5 3 -8 -15 -7 -39 2 -29 -1 -42 -8 -38 -6 4 -7 1
-2 -6 11 -18 13 -71 2 -71 -5 0 -4 -6 2 -14 9 -11 9 -15 0 -18 -9 -3 -9 -9 0
-25 7 -14 8 -24 1 -28 -5 -3 -10 -11 -10 -16 0 -6 4 -7 10 -4 6 3 7 -1 4 -9
-3 -9 -11 -13 -18 -9 -7 4 -7 1 1 -9 7 -8 10 -17 7 -21 -3 -3 -2 -12 3 -21 6
-10 13 -12 23 -6 12 8 12 10 -4 10 -20 0 -20 0 0 15 10 8 15 15 9 15 -5 0 1 7
13 16 12 8 20 20 17 25 -3 5 1 6 9 3 11 -4 14 0 11 16 -2 12 2 23 10 26 8 3
17 15 21 27 6 20 7 20 26 -4 11 -13 16 -18 12 -10 -4 8 -8 24 -10 37 -2 21 1
22 34 18 20 -2 33 -1 29 2 -3 4 -16 7 -27 8 -11 0 -19 6 -18 11 2 6 6 9 10 8
5 -2 8 3 8 11 0 8 7 17 16 20 8 3 12 10 9 16 -3 5 -2 10 3 10 5 0 21 18 36 41
22 33 31 39 49 33 21 -6 21 -5 3 8 -17 13 -17 15 -2 21 9 4 16 1 16 -5 0 -6 3
-9 6 -6 3 4 0 16 -6 28 -8 15 -8 20 -1 16 6 -4 11 -2 11 4 0 6 4 9 10 5 5 -3
7 -13 4 -23 -5 -13 -4 -14 4 -3 5 7 7 22 5 32 -3 11 0 19 6 19 7 0 10 -4 6 -9
-3 -5 0 -13 6 -17 8 -5 9 -3 4 6 -6 10 -3 12 11 7 18 -7 18 -6 -1 9 -14 11
-16 18 -7 21 6 3 9 9 6 15 -4 5 4 9 17 8 13 -1 31 -2 39 -1 13 1 13 3 0 10 -8
6 -18 7 -22 5 -4 -3 -8 0 -8 5 0 6 5 11 11 11 5 0 7 4 4 10 -3 6 1 7 9 4 9 -3
13 -11 9 -18 -3 -6 -2 -7 2 -3 14 12 15 38 2 31 -7 -3 -3 2 7 10 11 9 16 16
12 16 -4 0 7 15 23 32 28 30 33 32 52 20 12 -8 18 -9 15 -4 -3 6 -3 12 1 15 5
2 3 2 -4 1 -19 -5 -23 9 -7 24 8 7 14 8 14 2 0 -5 4 -10 10 -10 5 0 7 7 4 14
-3 9 8 28 25 45 30 29 59 43 46 22 -3 -6 5 -15 17 -21 22 -11 22 -10 4 4 -11
9 -16 16 -12 16 5 0 2 8 -5 17 -12 15 -12 16 3 10 12 -4 15 -2 11 9 -3 8 -2
14 3 12 5 -2 10 1 11 6 1 4 16 17 33 27 17 11 28 24 25 29 -4 6 1 7 11 3 12
-4 15 -3 10 6 -9 14 15 11 27 -4 5 -6 6 -2 3 9 -5 14 5 29 35 57 23 21 46 36
50 33 5 -3 9 2 9 10 0 9 5 16 11 16 17 0 59 37 51 45 -4 3 -2 6 3 4 16 -4 45
12 39 22 -3 5 3 6 12 2 13 -5 15 -3 9 7 -5 9 -4 11 3 6 7 -4 12 -2 12 4 0 6 5
8 10 5 6 -3 10 1 10 9 0 25 18 19 34 -11 8 -16 15 -24 16 -20 0 5 -4 16 -10
26 -13 26 14 61 48 61 74 1 77 1 64 9 -11 7 -10 9 2 14 9 4 16 15 16 26 0 14
5 19 15 15 12 -5 13 -10 4 -20 -8 -10 -8 -14 0 -14 6 0 12 6 12 13 1 6 2 19 3
27 0 8 16 20 34 26 18 5 29 13 26 17 -4 4 -1 7 6 7 7 0 21 10 31 22 18 20 24
15 20 -19 -1 -6 3 -14 9 -18 6 -4 8 6 6 24 -2 17 1 32 5 32 5 1 14 3 19 4 6 1
15 3 21 4 5 0 7 6 4 11 -4 6 -3 10 2 9 21 -4 34 2 27 13 -4 7 -3 8 4 4 6 -4
23 1 37 10 14 9 25 12 25 8 0 -5 4 -4 8 3 4 6 14 13 22 15 8 2 21 9 28 15 8 8
20 10 30 4 9 -4 23 -6 31 -3 8 2 11 0 7 -6 -3 -5 1 -12 9 -16 8 -3 17 0 21 6
4 6 3 8 -3 5 -6 -4 -14 0 -17 9 -3 9 -13 14 -21 10 -8 -3 -17 -1 -20 4 -4 6 5
10 18 10 14 0 30 7 37 15 7 8 17 12 22 9 5 -3 16 2 23 12 8 11 15 15 15 11 0
-4 9 -3 21 3 20 11 53 21 77 22 6 1 12 5 12 10 0 5 5 6 10 3 6 -4 18 -1 27 7
12 9 15 9 9 1 -6 -12 5 -18 27 -14 4 0 7 -3 7 -9 0 -5 5 -10 11 -10 8 0 9 4 0
13 -6 8 -7 18 -3 23 4 4 -1 2 -10 -5 -15 -12 -18 -11 -18 3 0 9 6 16 13 17 21
1 44 7 80 18 19 7 41 10 48 9 8 -2 13 2 12 9 -2 7 7 10 22 7 14 -2 25 0 25 5
0 5 11 8 25 5 16 -3 25 0 25 8 0 9 3 8 10 -2 7 -11 10 -11 10 -2 0 7 5 10 10
7 6 -3 10 -1 10 5 0 6 5 8 10 5 6 -4 19 -1 28 7 16 12 16 11 2 -6 -10 -13 -11
-17 -2 -12 7 4 20 2 28 -5 13 -10 17 -10 25 2 5 8 9 19 9 24 -1 6 -5 2 -11 -8
-6 -9 -15 -15 -20 -11 -17 10 22 31 53 29 15 -1 28 1 28 5 0 3 7 7 15 7 8 0
15 -4 15 -8 0 -12 -38 -30 -42 -20 -2 5 -10 2 -18 -7 -13 -14 -12 -15 3 -9 10
4 21 0 27 -11 11 -15 11 -15 6 2 -5 14 -2 17 9 12 10 -4 14 -2 9 5 -4 7 0 9
12 5 11 -3 25 -2 32 3 10 6 10 10 -3 21 -13 11 -15 10 -9 -4 3 -9 1 -16 -6
-16 -18 0 -7 33 13 36 9 1 15 -2 11 -7 -3 -5 0 -9 5 -9 6 0 11 4 11 9 0 6 8
10 18 10 71 1 178 15 184 25 6 8 8 8 8 -1 0 -12 17 -12 37 0 6 4 14 3 18 -3 3
-5 11 -10 16 -10 6 0 7 6 3 13 -5 7 -1 7 10 -2 14 -12 19 -12 25 -2 6 10 10 8
15 -5 4 -10 0 -24 -10 -36 -24 -26 -31 -13 -8 14 l18 23 -24 -22 c-17 -16 -21
-26 -14 -33 7 -7 16 -4 29 10 27 30 39 24 16 -8 -16 -22 -17 -29 -5 -29 7 0
12 2 9 5 -8 8 16 43 26 37 5 -4 9 -2 9 2 0 5 -9 14 -20 21 -30 18 -24 28 15
28 34 0 45 -9 25 -21 -5 -3 -10 -2 -10 3 0 5 -7 9 -16 9 -15 0 -14 -2 1 -13
10 -8 22 -11 26 -8 5 3 9 0 9 -7 0 -7 8 -5 20 6 21 19 28 7 8 -13 -9 -9 -9
-15 1 -24 10 -11 11 -9 5 6 -6 16 -5 17 16 6 18 -10 21 -9 15 1 -6 9 -2 11 13
7 13 -4 20 -2 16 4 -3 5 -17 7 -30 4 -18 -5 -22 -3 -17 9 3 9 8 14 11 11 2 -3
13 -1 23 5 15 8 19 6 20 -8 0 -10 1 -32 2 -50 1 -18 -2 -29 -8 -25 -6 4 -6 0
0 -9 6 -8 10 -32 9 -54 0 -22 4 -43 10 -47 8 -6 8 -8 -1 -8 -8 0 -11 -18 -9
-55 2 -31 -1 -58 -6 -61 -4 -3 -5 -11 -1 -17 4 -7 8 -21 8 -32 0 -11 4 -25 8
-32 4 -6 3 -14 -2 -17 -11 -7 -9 -25 3 -45 6 -10 5 -12 -2 -7 -7 4 -12 1 -12
-8 0 -9 6 -16 13 -16 8 0 8 -3 1 -8 -13 -9 -14 -62 -1 -62 5 0 7 6 4 13 -3 7
3 13 13 14 9 1 30 13 46 28 15 14 33 24 39 21 7 -2 18 0 26 6 11 8 11 9 -3 4
-12 -3 -15 -1 -12 9 3 8 13 11 21 8 10 -4 14 -2 10 4 -3 5 2 17 12 25 14 12
22 13 31 5 8 -9 10 -8 5 6 -4 9 -3 17 3 17 6 0 12 -5 14 -12 3 -7 7 -5 11 6 4
10 3 15 -3 11 -6 -3 -10 -1 -10 4 0 6 9 11 20 11 11 0 20 -5 20 -12 0 -6 3 -9
6 -6 3 4 0 16 -6 28 -8 15 -8 20 -1 16 6 -4 11 -2 11 4 0 6 5 8 10 5 6 -3 10
-1 10 5 0 6 5 8 12 4 8 -5 5 -11 -7 -20 -10 -8 -15 -17 -11 -21 4 -4 12 0 18
10 8 15 12 16 26 5 16 -12 16 -11 1 7 -9 11 -20 27 -24 35 -7 12 -6 13 7 3 8
-7 18 -10 21 -6 4 3 7 1 7 -5 0 -7 5 -12 11 -12 8 0 7 6 -2 16 -12 15 -11 16
11 10 19 -6 21 -5 10 3 -13 9 -13 11 3 12 30 3 35 4 42 11 14 13 -45 0 -70
-16 -15 -10 -25 -12 -25 -5 0 6 9 13 20 16 11 3 17 10 13 16 -3 6 -1 7 6 3 6
-4 14 0 17 9 5 11 10 13 19 5 10 -8 13 -6 11 7 0 10 9 22 22 28 12 5 22 15 22
21 0 6 13 17 30 24 16 7 27 17 24 22 -4 6 6 2 20 -7 27 -18 27 -18 33 5 6 22
7 22 20 5 7 -11 13 -15 13 -9 0 5 -7 17 -14 27 -13 17 -14 17 -22 -7 -6 -17
-13 -23 -22 -18 -9 6 -8 12 5 25 51 49 90 76 103 71 8 -3 11 -2 8 2 -8 8 14
34 25 27 4 -2 7 3 7 11 0 9 6 15 13 14 6 -2 11 2 10 9 -2 8 4 10 14 6 14 -5
10 -12 -20 -38 -38 -33 -45 -45 -26 -45 5 0 7 5 4 10 -6 10 9 15 30 10 6 -1 7
1 3 5 -9 10 15 34 26 27 5 -3 6 0 2 6 -3 6 1 15 11 20 14 8 15 13 5 25 -10 12
-9 16 3 21 9 3 13 2 10 -4 -3 -6 -1 -10 4 -10 6 0 12 5 12 10 1 6 3 15 4 20 1
6 3 13 4 18 1 4 6 0 11 -8 6 -10 10 -11 10 -2 0 17 37 52 54 52 8 0 18 -4 21
-10 3 -5 11 -10 17 -10 5 0 0 9 -13 20 -20 16 -21 19 -6 20 9 0 17 -4 17 -10
0 -5 5 -10 11 -10 8 0 8 5 -1 15 -10 12 -10 18 0 30 7 8 17 12 22 9 6 -4 5
-10 -3 -15 -7 -4 -10 -11 -6 -15 10 -10 19 2 22 28 4 37 4 38 16 38 8 0 8 -4
0 -14 -9 -11 -9 -16 0 -22 7 -4 9 -3 5 4 -3 6 -1 14 5 17 5 4 8 14 5 22 -5 11
-2 13 10 9 8 -3 18 -6 21 -6 4 0 -2 -9 -12 -20 -10 -11 -13 -20 -8 -20 6 0 14
7 17 16 3 8 11 12 16 9 6 -4 9 -3 8 2 -1 4 3 19 10 33 l13 25 -20 -23 c-11
-12 -22 -19 -25 -14 -6 9 29 42 44 42 6 0 10 -4 10 -10 0 -5 9 -14 19 -20 17
-9 19 -7 16 10 -2 12 2 23 10 27 8 3 12 10 9 15 -4 6 2 8 17 3 23 -7 23 -7 4
8 -18 15 -21 14 -29 -4 -5 -10 -13 -19 -19 -19 -5 0 -7 -7 -3 -15 8 -22 -7
-18 -22 5 -7 11 -9 20 -5 19 22 -4 32 3 26 16 -3 9 -2 15 3 13 5 -1 21 6 36
16 26 17 54 14 43 -5 -4 -5 -1 -9 4 -9 17 0 13 27 -6 34 -14 6 -14 8 3 21 16
12 22 12 44 -2 14 -9 22 -12 18 -8 -8 8 14 35 24 29 4 -2 9 0 12 5 8 13 -19 8
-36 -7 -8 -6 -18 -9 -21 -6 -10 11 20 34 45 35 13 0 17 3 11 6 -7 2 -13 9 -13
14 0 6 5 7 10 4 6 -3 10 -1 10 4 0 6 9 11 19 11 11 0 23 5 27 12 5 8 1 9 -12
5 -19 -7 -19 -7 0 8 10 8 23 12 27 9 5 -3 9 2 9 11 0 9 4 14 9 11 5 -3 7 -16
5 -29 -2 -12 -1 -15 2 -7 11 25 28 30 36 12 7 -14 7 -14 5 3 -2 13 -9 19 -20
17 -9 -2 -17 2 -17 8 0 5 5 10 11 10 5 0 7 4 4 10 -3 6 1 7 9 4 8 -3 18 -15
22 -26 3 -11 8 -17 11 -15 2 3 -1 15 -7 27 -13 25 -4 42 11 20 8 -11 9 -10 4
8 -5 16 -2 22 10 22 9 0 13 5 10 10 -3 6 1 10 10 10 9 0 14 -4 11 -8 -2 -4 0
-14 6 -22 8 -12 9 -11 4 4 -5 13 -2 17 9 12 8 -3 15 -1 15 4 0 6 -7 10 -15 10
-8 0 -15 5 -15 10 0 17 28 11 39 -7 6 -10 11 -14 11 -9 0 5 -8 19 -17 30 -10
12 -14 18 -10 14 5 -3 18 3 29 14 11 11 25 17 32 15 7 -3 23 4 37 15 l24 20
-27 -16 c-17 -10 -29 -12 -33 -6 -4 6 -1 9 7 8 7 -2 12 3 10 10 -1 8 2 11 8 7
5 -3 10 -2 10 3 0 5 13 8 30 7 21 -1 34 5 45 22 9 12 11 23 6 23 -5 0 -12 -8
-15 -18 -3 -10 -15 -18 -25 -18 -11 0 -17 4 -15 8 3 4 12 8 20 8 8 0 14 6 14
14 0 26 29 25 50 -2 14 -18 18 -20 11 -6 -10 21 -6 34 11 34 5 0 6 -5 3 -10
-4 -6 -1 -9 7 -8 7 2 12 -3 10 -10 -1 -8 2 -11 7 -7 13 8 3 32 -16 39 -9 4
-21 1 -29 -5 -10 -8 -13 -6 -11 9 0 10 8 19 17 18 8 -1 14 5 12 12 -1 8 2 11
8 7 5 -3 10 -1 10 5 0 6 5 8 10 5 6 -3 10 -1 10 5 0 6 5 8 10 5 6 -3 10 2 10
11 0 16 1 16 20 -1 11 -10 20 -13 20 -7 0 6 -6 12 -12 15 -9 3 -3 15 17 35 34
35 47 40 39 15 -5 -14 -4 -15 4 -4 6 8 8 20 5 27 -2 7 5 15 16 19 12 3 21 10
21 14 0 5 -52 44 -115 87 -63 43 -115 81 -115 86 0 4 -9 8 -20 8 -11 0 -20 7
-20 15 0 8 -4 14 -8 13 -5 -2 -37 17 -71 42 -35 25 -74 52 -86 60 -13 8 -49
33 -80 55 -32 22 -64 45 -73 50 -9 6 -25 18 -36 28 -11 9 -23 17 -27 17 -5 0
-20 11 -35 25 -15 14 -33 25 -40 25 -7 0 -14 3 -16 8 -4 9 -85 72 -93 72 -4 0
-24 14 -45 30 -21 17 -42 30 -47 30 -6 0 -18 9 -28 20 -10 11 -24 20 -32 20
-8 0 -12 4 -9 9 3 5 -8 14 -24 21 -17 7 -30 17 -30 23 0 6 -3 8 -6 5 -3 -3
-17 5 -31 18 -14 13 -29 21 -34 18 -5 -3 -9 -1 -9 4 0 5 -33 31 -72 58 -40 26
-74 52 -76 56 -2 4 -8 8 -14 8 -5 0 -15 6 -22 13 -7 6 -49 37 -94 66 -45 30
-82 59 -82 63 0 4 -5 8 -10 8 -12 0 -114 70 -118 82 -2 4 -10 8 -18 8 -8 0
-14 5 -14 10 0 6 -7 10 -15 10 -8 0 -15 5 -15 10 0 6 -5 10 -10 10 -6 0 -20 9
-32 20 -12 11 -28 20 -35 20 -7 0 -13 3 -13 8 0 4 -25 23 -55 42 -30 19 -55
38 -55 43 0 4 -8 7 -19 7 -13 0 -18 -6 -16 -24z m-21 -2268 c-2 -4 -13 -5 -24
-3 -11 2 -22 0 -25 -6 -9 -14 -25 -11 -19 4 2 7 20 13 39 13 18 0 32 -4 29 -8z
m776 8 c0 -11 -19 -15 -25 -6 -3 5 1 10 9 10 9 0 16 -2 16 -4z m-2490 -497 c0
-5 -4 -7 -10 -4 -5 3 -10 2 -10 -4 0 -17 -38 -33 -46 -19 -4 6 -3 8 3 5 5 -3
17 3 26 14 18 21 37 25 37 8z"/>
<path d="M5790 6081 c0 -6 4 -13 10 -16 6 -3 7 1 4 9 -7 18 -14 21 -14 7z"/>
<path d="M3610 5459 c0 -5 5 -7 10 -4 6 3 10 8 10 11 0 2 -4 4 -10 4 -5 0 -10
-5 -10 -11z"/>
<path d="M7671 5192 c-1 -8 -6 -10 -13 -6 -7 4 -9 3 -5 -2 10 -11 58 -14 51
-2 -3 4 -9 6 -14 3 -4 -3 -11 1 -13 7 -4 10 -6 10 -6 0z"/>
<path d="M7606 5135 c-11 -8 -16 -18 -12 -22 4 -4 12 0 17 10 6 9 15 14 21 11
7 -4 8 -2 4 4 -9 14 -7 15 -30 -3z"/>
<path d="M7667 5139 c7 -7 15 -10 18 -7 3 3 -2 9 -12 12 -14 6 -15 5 -6 -5z"/>
<path d="M7565 5120 c-3 -5 -1 -10 4 -10 6 0 11 5 11 10 0 6 -2 10 -4 10 -3 0
-8 -4 -11 -10z"/>
<path d="M7496 5021 c-4 -5 3 -7 14 -4 23 6 26 13 6 13 -8 0 -17 -4 -20 -9z"/>
<path d="M7455 5000 c3 -5 8 -10 11 -10 2 0 4 5 4 10 0 6 -5 10 -11 10 -5 0
-7 -4 -4 -10z"/>
<path d="M7434 4979 c-3 -6 -3 -13 0 -16 3 -4 6 -1 6 5 0 6 7 9 15 6 8 -4 15
-4 15 -1 0 11 -30 16 -36 6z"/>
<path d="M7360 4955 c-7 -9 -11 -17 -9 -20 3 -2 10 5 17 15 14 24 10 26 -8 5z"/>
<path d="M7401 4953 c-5 -10 -13 -17 -18 -15 -4 2 -9 -2 -11 -10 -2 -9 -1 -9
5 -2 4 6 16 10 25 8 10 -1 21 3 25 8 4 7 1 8 -7 3 -10 -6 -12 -4 -7 8 8 22 1
22 -12 0z"/>
<path d="M7273 4874 c3 -4 2 -16 -4 -28 -9 -19 -9 -19 4 -4 8 10 17 15 21 11
4 -4 4 0 0 10 -3 9 -11 17 -17 17 -6 0 -7 -3 -4 -6z"/>
<path d="M3210 4861 c0 -6 4 -13 10 -16 6 -3 7 1 4 9 -7 18 -14 21 -14 7z"/>
<path d="M7330 4859 c0 -5 5 -7 10 -4 6 3 10 8 10 11 0 2 -4 4 -10 4 -5 0 -10
-5 -10 -11z"/>
<path d="M7286 4822 c-3 -5 1 -9 9 -9 8 0 12 4 9 9 -3 4 -7 8 -9 8 -2 0 -6 -4
-9 -8z"/>
<path d="M7155 4791 c5 -9 1 -19 -10 -28 -11 -7 -14 -13 -8 -13 6 0 16 7 23
15 11 13 11 18 0 28 -10 10 -11 9 -5 -2z"/>
<path d="M7186 4758 c3 -4 9 -8 15 -8 5 0 9 4 9 8 0 5 -7 9 -15 9 -8 0 -12 -4
-9 -9z"/>
<path d="M7113 4735 c0 -14 3 -28 7 -30 5 -3 7 6 5 20 -3 35 -12 42 -12 10z"/>
<path d="M7153 4735 c-3 -9 -3 -18 -1 -21 3 -3 8 4 11 16 6 23 -1 27 -10 5z"/>
<path d="M7010 4680 c0 -5 9 -14 20 -20 11 -6 20 -9 20 -8 0 2 -9 11 -20 21
-11 9 -20 13 -20 7z"/>
<path d="M6965 4640 c-3 -5 -1 -10 4 -10 6 0 11 5 11 10 0 6 -2 10 -4 10 -3 0
-8 -4 -11 -10z"/>
<path d="M6966 4578 c3 -5 10 -6 15 -3 13 9 11 12 -6 12 -8 0 -12 -4 -9 -9z"/>
<path d="M6876 4533 c-6 -14 -5 -15 5 -6 7 7 10 15 7 18 -3 3 -9 -2 -12 -12z"/>
<path d="M6775 4440 c-3 -6 1 -7 9 -4 18 7 21 14 7 14 -6 0 -13 -4 -16 -10z"/>
<path d="M6681 4406 c-9 -10 -8 -15 3 -19 11 -4 13 -1 9 10 -5 12 -3 14 7 8 9
-5 11 -4 6 3 -9 15 -11 15 -25 -2z"/>
<path d="M6650 4383 c0 -5 10 -19 21 -33 l20 -25 -16 33 c-15 30 -25 41 -25
25z"/>
<path d="M6710 4378 c0 -4 4 -8 9 -8 6 0 12 4 15 8 3 5 -1 9 -9 9 -8 0 -15 -4
-15 -9z"/>
<path d="M6630 4351 c0 -5 7 -11 14 -14 10 -4 13 -1 9 9 -6 15 -23 19 -23 5z"/>
<path d="M6620 4320 c8 -5 20 -10 25 -10 6 0 3 5 -5 10 -8 5 -19 10 -25 10 -5
0 -3 -5 5 -10z"/>
<path d="M5565 4310 c-4 -6 -10 -8 -15 -5 -4 3 -10 -2 -13 -10 -4 -10 -1 -12
10 -8 12 5 14 3 8 -8 -8 -12 -6 -12 9 0 13 11 19 12 25 3 4 -7 11 -4 20 11 9
15 10 18 1 10 -14 -13 -43 -6 -34 8 3 5 3 9 0 9 -3 0 -8 -5 -11 -10z"/>
<path d="M6604 4302 c-13 -8 -15 -44 -2 -36 5 4 7 9 4 12 -3 3 -1 11 5 19 13
14 10 17 -7 5z"/>
<path d="M5360 4291 c-8 -6 -18 -7 -24 -4 -5 3 -6 1 -2 -5 3 -5 1 -12 -6 -14
-7 -3 -8 -7 -3 -9 6 -3 21 5 34 18 25 24 26 29 1 14z"/>
<path d="M5402 4291 c-9 -5 -4 -15 18 -34 16 -15 30 -22 30 -17 0 6 -7 13 -15
16 -8 4 -12 10 -9 16 4 5 13 3 22 -5 10 -9 32 -13 54 -12 25 2 36 -1 31 -8 -3
-6 -1 -7 6 -3 15 10 3 29 -14 22 -8 -3 -19 3 -27 11 -11 15 -11 16 7 9 15 -5
17 -4 8 5 -17 17 -37 1 -22 -17 9 -11 9 -14 -1 -14 -6 0 -14 9 -17 20 -3 11
-9 20 -14 20 -5 0 -6 -7 -2 -16 6 -15 4 -15 -18 -1 -14 9 -30 13 -37 8z"/>
<path d="M5706 4263 c-6 -14 -5 -15 5 -6 7 7 10 15 7 18 -3 3 -9 -2 -12 -12z"/>
<path d="M5360 4260 c-8 -5 -12 -11 -9 -14 3 -3 14 1 25 9 21 16 8 20 -16 5z"/>
<path d="M5572 4265 c4 -4 0 -13 -8 -20 -15 -11 -15 -12 -1 -12 20 0 30 24 14
33 -7 4 -9 4 -5 -1z"/>
<path d="M5393 4235 c0 -8 4 -12 9 -9 4 3 8 9 8 15 0 5 -4 9 -8 9 -5 0 -9 -7
-9 -15z"/>
<path d="M5790 4240 c0 -5 5 -10 11 -10 5 0 7 5 4 10 -3 6 -8 10 -11 10 -2 0
-4 -4 -4 -10z"/>
<path d="M6570 4241 c0 -6 4 -13 10 -16 6 -3 7 1 4 9 -7 18 -14 21 -14 7z"/>
<path d="M5076 4227 c-11 -8 -16 -20 -13 -28 4 -10 6 -9 6 4 1 10 5 16 10 13
5 -3 11 1 15 9 7 18 5 19 -18 2z"/>
<path d="M4997 4218 c-12 -10 -14 -17 -6 -28 9 -13 10 -13 6 0 -2 8 3 20 12
27 9 7 13 13 10 13 -3 0 -13 -6 -22 -12z"/>
<path d="M5032 4218 c-19 -24 -18 -41 5 -43 14 -1 19 3 16 12 -3 7 -9 10 -14
7 -5 -3 -9 -1 -9 5 0 5 6 11 13 14 6 2 9 7 6 11 -3 4 -11 1 -17 -6z"/>
<path d="M5102 4210 c-7 -11 -8 -20 -3 -20 5 0 12 7 15 16 3 8 10 12 16 9 5
-3 10 -1 10 4 0 18 -24 12 -38 -9z"/>
<path d="M5175 4220 c-3 -5 -2 -10 4 -10 5 0 13 5 16 10 3 6 2 10 -4 10 -5 0
-13 -4 -16 -10z"/>
<path d="M5252 4218 c2 -8 -7 -13 -25 -12 -30 1 -28 -8 2 -13 23 -3 47 22 31
32 -6 4 -9 1 -8 -7z"/>
<path d="M5506 4218 c3 -5 10 -6 15 -3 13 9 11 12 -6 12 -8 0 -12 -4 -9 -9z"/>
<path d="M6450 4220 c0 -5 -6 -10 -14 -10 -21 0 -30 -20 -16 -33 10 -9 12 -8
7 5 -6 16 22 32 53 29 13 -2 13 -1 0 8 -19 14 -30 14 -30 1z"/>
<path d="M5150 4205 c0 -8 4 -15 10 -15 5 0 7 7 4 15 -4 8 -8 15 -10 15 -2 0
-4 -7 -4 -15z"/>
<path d="M5282 4204 c-7 -8 -8 -14 -3 -14 10 0 25 19 20 25 -2 1 -10 -3 -17
-11z"/>
<path d="M5795 4209 c-4 -6 -5 -12 -2 -15 2 -3 7 2 10 11 7 17 1 20 -8 4z"/>
<path d="M6513 4205 c0 -8 4 -12 9 -9 5 3 6 10 3 15 -9 13 -12 11 -12 -6z"/>
<path d="M4896 4184 c-23 -23 -20 -30 4 -9 11 10 20 20 20 22 0 7 -9 2 -24
-13z"/>
<path d="M4932 4184 c-23 -16 -29 -34 -11 -34 5 0 8 4 5 9 -6 9 22 26 37 23 4
-1 7 3 7 8 0 14 -12 12 -38 -6z"/>
<path d="M5116 4175 c-9 -26 -7 -32 5 -12 6 10 9 21 6 23 -2 3 -7 -2 -11 -11z"/>
<path d="M4828 4161 c4 -10 7 -11 10 -3 2 7 8 12 13 12 6 0 8 -4 5 -9 -3 -5 8
-14 24 -20 18 -6 28 -6 25 -1 -4 6 -12 10 -20 10 -7 0 -15 6 -18 14 -3 8 -15
14 -25 13 -13 -1 -18 -6 -14 -16z"/>
<path d="M4950 4136 c7 -7 13 -7 20 0 6 6 3 10 -10 10 -13 0 -16 -4 -10 -10z"/>
<path d="M4724 4131 c-5 -3 -10 -15 -12 -26 l-2 -20 11 20 c17 29 17 29 36 14
14 -12 16 -12 8 0 -6 11 -4 13 9 8 9 -4 15 -3 12 2 -6 10 -50 11 -62 2z"/>
<path d="M4690 4121 c0 -8 -8 -11 -19 -8 -10 2 -25 0 -32 -5 -11 -7 -9 -8 5
-4 13 4 17 2 13 -7 -3 -8 -1 -20 4 -28 8 -11 9 -11 7 3 -2 9 6 24 17 32 11 8
17 18 12 22 -4 4 -7 2 -7 -5z"/>
<path d="M6340 4120 c8 -5 20 -10 25 -10 6 0 3 5 -5 10 -8 5 -19 10 -25 10 -5
0 -3 -5 5 -10z"/>
<path d="M6385 4120 c-3 -6 1 -7 9 -4 18 7 21 14 7 14 -6 0 -13 -4 -16 -10z"/>
<path d="M4784 4104 c-18 -15 -18 -15 3 -5 28 14 36 14 27 -1 -4 -7 -3 -8 5
-4 11 7 6 26 -8 26 -4 0 -16 -7 -27 -16z"/>
<path d="M6296 4104 c-9 -8 -16 -19 -16 -24 0 -5 -6 -7 -14 -4 -8 3 -16 1 -20
-4 -12 -19 35 -4 50 16 20 28 44 18 38 -16 -3 -15 -3 -24 1 -21 3 4 7 16 10
28 5 29 -28 47 -49 25z"/>
<path d="M4606 4095 c-7 -19 3 -45 16 -45 7 0 6 5 -1 14 -6 7 -9 21 -5 30 3 9
4 16 1 16 -3 0 -7 -7 -11 -15z"/>
<path d="M4733 4095 c-3 -9 -3 -19 1 -22 3 -4 6 1 6 11 0 10 5 14 12 10 7 -4
8 -3 4 4 -10 16 -15 15 -23 -3z"/>
<path d="M4574 4082 c3 -6 -2 -12 -11 -14 -16 -3 -17 -4 -1 -10 19 -8 33 17
16 28 -6 4 -8 3 -4 -4z"/>
<path d="M4630 4081 c0 -6 4 -13 10 -16 6 -3 7 1 4 9 -7 18 -14 21 -14 7z"/>
<path d="M4686 4075 c4 -8 8 -15 10 -15 2 0 4 7 4 15 0 8 -4 15 -10 15 -5 0
-7 -7 -4 -15z"/>
<path d="M6295 4060 c-3 -6 1 -7 9 -4 18 7 21 14 7 14 -6 0 -13 -4 -16 -10z"/>
<path d="M4586 4044 c-4 -9 -4 -19 -1 -22 3 -3 5 0 5 7 0 7 4 9 10 6 6 -3 7 1
4 9 -8 20 -10 20 -18 0z"/>
<path d="M4486 4035 c5 -13 4 -16 -4 -11 -7 4 -15 1 -18 -8 -3 -9 -10 -16 -15
-16 -4 0 -5 8 -2 18 4 9 -9 1 -28 -18 -34 -35 -41 -49 -17 -34 7 5 22 8 33 7
16 -1 17 -1 2 3 -9 3 -15 9 -12 14 3 5 12 7 20 4 8 -4 18 1 21 10 3 9 9 14 13
12 4 -3 13 -1 19 3 10 6 9 11 -3 21 -13 11 -14 10 -9 -5z"/>
<path d="M6256 4035 c4 -8 8 -15 10 -15 2 0 4 7 4 15 0 8 -4 15 -10 15 -5 0
-7 -7 -4 -15z"/>
<path d="M4509 4008 c-8 -7 -12 -12 -10 -11 2 2 9 -1 15 -7 8 -6 12 -3 12 11
0 10 -1 19 -1 19 -1 0 -8 -6 -16 -12z"/>
<path d="M4375 3989 c-16 -10 -25 -19 -19 -19 7 0 22 9 35 20 30 24 23 24 -16
-1z"/>
<path d="M6237 3996 c-17 -13 -17 -14 0 -20 10 -4 14 -4 10 0 -4 4 -2 13 4 21
14 17 9 16 -14 -1z"/>
<path d="M4327 3956 c-4 -10 -12 -14 -19 -10 -7 4 -9 3 -5 -1 13 -15 36 -14
49 3 8 10 9 13 1 9 -6 -4 -13 -2 -15 5 -3 7 -7 5 -11 -6z"/>
<path d="M4283 3925 c0 -14 3 -28 8 -31 5 -3 6 3 2 12 -5 13 -3 15 8 9 12 -7
12 -6 -1 11 -8 10 -15 20 -16 22 -1 2 -1 -9 -1 -23z"/>
<path d="M4401 3936 c-7 -8 -20 -13 -30 -11 -10 2 -24 -1 -31 -5 -9 -6 -3 -8
18 -6 18 1 40 10 49 19 10 9 15 17 11 17 -3 0 -11 -6 -17 -14z"/>
<path d="M4419 3913 c-13 -16 -12 -17 4 -4 16 13 21 21 13 21 -2 0 -10 -8 -17
-17z"/>
<path d="M6106 3903 c-6 -14 -5 -15 5 -6 7 7 10 15 7 18 -3 3 -9 -2 -12 -12z"/>
<path d="M4215 3890 c3 -5 0 -11 -7 -11 -7 -1 -17 -2 -23 -4 -5 -1 -16 -3 -22
-3 -7 -1 -13 -7 -13 -13 0 -8 5 -7 15 1 9 7 18 10 22 7 8 -8 43 11 43 23 0 6
-5 10 -11 10 -5 0 -7 -4 -4 -10z"/>
<path d="M6066 3884 c-5 -14 -4 -15 9 -4 17 14 19 20 6 20 -5 0 -12 -7 -15
-16z"/>
<path d="M4246 3877 c3 -10 9 -15 12 -12 3 3 0 11 -7 18 -10 9 -11 8 -5 -6z"/>
<path d="M6000 3870 c-9 -6 -10 -10 -3 -10 6 0 15 5 18 10 8 12 4 12 -15 0z"/>
<path d="M4290 3860 c0 -5 5 -10 11 -10 5 0 7 5 4 10 -3 6 -8 10 -11 10 -2 0
-4 -4 -4 -10z"/>
<path d="M6030 3860 c0 -5 5 -10 10 -10 6 0 10 5 10 10 0 6 -4 10 -10 10 -5 0
-10 -4 -10 -10z"/>
<path d="M4166 3842 c-3 -5 1 -9 9 -9 8 0 15 4 15 9 0 4 -4 8 -9 8 -6 0 -12
-4 -15 -8z"/>
<path d="M6000 3846 c0 -2 7 -7 16 -10 8 -3 12 -2 9 4 -6 10 -25 14 -25 6z"/>
<path d="M5990 3823 c0 -5 5 -15 10 -23 7 -12 9 -10 7 8 -1 19 -17 33 -17 15z"/>
<path d="M5923 3803 c-18 -7 -16 -20 2 -20 8 0 12 4 9 9 -3 5 7 6 23 3 23 -4
24 -4 8 4 -23 11 -25 11 -42 4z"/>
<path d="M4095 3781 c-3 -5 -2 -12 3 -15 5 -3 9 1 9 9 0 17 -3 19 -12 6z"/>
<path d="M3985 3770 c-3 -5 3 -7 15 -5 11 2 22 0 25 -5 3 -5 13 -6 22 -3 12 5
14 3 8 -8 -5 -8 -4 -11 0 -6 5 4 10 14 11 22 2 11 -2 12 -16 5 -9 -5 -20 -6
-24 -3 -10 11 -35 12 -41 3z"/>
<path d="M3980 3739 c0 -5 5 -7 10 -4 6 3 10 8 10 11 0 2 -4 4 -10 4 -5 0 -10
-5 -10 -11z"/>
<path d="M5871 3734 c6 -7 7 -19 3 -25 -4 -7 -3 -9 4 -5 15 9 11 43 -5 43 -9
0 -10 -4 -2 -13z"/>
<path d="M5900 3746 c0 -2 9 -6 20 -9 11 -3 18 -1 14 4 -5 9 -34 13 -34 5z"/>
<path d="M4053 3715 c0 -8 4 -12 9 -9 5 3 6 10 3 15 -9 13 -12 11 -12 -6z"/>
<path d="M3919 3702 c-24 -15 -25 -19 -11 -32 14 -13 15 -12 9 2 -4 12 0 19
14 23 10 4 19 11 19 16 0 11 1 11 -31 -9z"/>
<path d="M3855 3671 c-3 -5 -1 -12 5 -16 6 -4 8 -11 5 -16 -3 -5 1 -6 11 -2
15 5 15 7 -1 16 -14 8 -15 11 -4 18 9 6 10 9 2 9 -6 0 -14 -4 -18 -9z"/>
<path d="M3830 3643 c0 -5 5 -15 10 -23 7 -12 9 -10 7 8 -1 19 -17 33 -17 15z"/>
<path d="M3790 3610 c-12 -12 -18 -25 -15 -30 8 -13 35 -13 35 0 0 5 -7 7 -15
4 -19 -8 -19 0 1 20 14 15 17 14 35 -6 l20 -23 -17 28 c-20 32 -19 32 -44 7z"/>
<path d="M3745 3590 c-8 -13 3 -30 18 -30 8 0 7 3 -2 9 -7 5 -10 14 -7 20 4 6
5 11 2 11 -3 0 -8 -4 -11 -10z"/>
<path d="M3721 3573 c-1 -6 -4 -20 -7 -30 -5 -17 -5 -17 6 0 6 10 9 23 6 30
-3 9 -5 9 -5 0z"/>
<path d="M3733 3535 c-3 -9 -3 -18 -1 -21 3 -3 8 4 11 16 6 23 -1 27 -10 5z"/>
<path d="M3660 3480 c8 -5 20 -10 25 -10 6 0 3 5 -5 10 -8 5 -19 10 -25 10 -5
0 -3 -5 5 -10z"/>
<path d="M3630 3470 c8 -5 20 -10 25 -10 6 0 3 5 -5 10 -8 5 -19 10 -25 10 -5
0 -3 -5 5 -10z"/>
<path d="M3601 3451 c-11 -7 -9 -12 10 -22 21 -11 23 -11 11 3 -10 13 -10 17
0 21 7 3 9 6 3 6 -5 0 -16 -3 -24 -8z"/>
<path d="M3646 3438 c3 -5 10 -6 15 -3 13 9 11 12 -6 12 -8 0 -12 -4 -9 -9z"/>
<path d="M3576 3423 c-10 -10 -7 -33 4 -33 5 0 7 7 3 16 -5 15 -3 15 20 -1 15
-9 27 -15 27 -12 0 9 -48 36 -54 30z"/>
<path d="M3510 3370 c0 -5 5 -10 11 -10 5 0 7 5 4 10 -3 6 -8 10 -11 10 -2 0
-4 -4 -4 -10z"/>
<path d="M3480 3356 c0 -2 7 -9 15 -16 9 -7 15 -8 15 -2 0 5 -7 12 -15 16 -8
3 -15 4 -15 2z"/>
<path d="M3470 3336 c0 -2 8 -10 18 -17 15 -13 16 -12 3 4 -13 16 -21 21 -21
13z"/>
<path d="M3476 3287 c3 -10 9 -15 12 -12 3 3 0 11 -7 18 -10 9 -11 8 -5 -6z"/>
<path d="M3385 3254 c-22 -34 -7 -48 24 -23 13 10 19 19 13 19 -5 0 -15 -7
-22 -15 -7 -9 -15 -13 -18 -10 -3 3 3 14 13 25 10 11 16 22 13 25 -3 3 -13 -6
-23 -21z"/>
<path d="M3453 3245 c0 -8 4 -12 9 -9 5 3 6 10 3 15 -9 13 -12 11 -12 -6z"/>
<path d="M3366 3197 c3 -10 9 -15 12 -12 3 3 0 11 -7 18 -10 9 -11 8 -5 -6z"/>
<path d="M3290 3125 c0 -5 5 -17 10 -25 5 -8 10 -10 10 -5 0 6 -5 17 -10 25
-5 8 -10 11 -10 5z"/>
<path d="M3257 3063 c-8 -7 11 -33 24 -33 5 0 9 5 9 10 0 6 -6 9 -12 8 -7 -2
-12 3 -10 10 2 13 -1 15 -11 5z"/>
<path d="M3229 3023 c-13 -16 -12 -17 4 -4 16 13 21 21 13 21 -2 0 -10 -8 -17
-17z"/>
<path d="M3160 2988 c-10 -21 -10 -21 3 -6 8 10 18 14 22 10 5 -4 5 -1 1 6
-10 17 -14 15 -26 -10z"/>
<path d="M3190 2963 c0 -6 8 -17 18 -24 16 -13 16 -13 2 6 -8 11 -16 22 -17
24 -2 2 -3 0 -3 -6z"/>
<path d="M3135 2940 c-3 -5 -3 -10 2 -10 4 -1 -4 -7 -19 -16 -17 -9 -25 -20
-22 -29 4 -8 8 -15 11 -15 3 0 3 6 0 14 -3 8 5 18 19 25 14 6 23 15 20 20 -4
5 0 12 6 14 9 4 10 6 1 6 -6 1 -15 -3 -18 -9z"/>
<path d="M3028 2783 c10 -4 9 -10 -5 -27 l-18 -21 22 19 c23 19 22 37 0 35 -8
0 -8 -2 1 -6z"/>
<path d="M2995 2770 c3 -5 8 -10 11 -10 2 0 4 5 4 10 0 6 -5 10 -11 10 -5 0
-7 -4 -4 -10z"/>
<path d="M2966 2717 c-16 -12 -16 -13 2 -13 10 0 19 6 19 13 0 7 -1 13 -2 13
-1 0 -9 -6 -19 -13z"/>
<path d="M2959 2673 c-13 -16 -12 -17 4 -4 16 13 21 21 13 21 -2 0 -10 -8 -17
-17z"/>
<path d="M3586 2650 c5 -8 9 -18 9 -22 0 -3 3 -9 7 -13 3 -4 5 0 4 9 -1 9 -8
22 -16 29 -10 10 -11 9 -4 -3z"/>
<path d="M4066 2650 c5 -8 9 -18 9 -22 0 -3 3 -9 7 -13 3 -4 5 0 4 9 -1 9 -8
22 -16 29 -10 10 -11 9 -4 -3z"/>
<path d="M4546 2650 c5 -8 9 -18 9 -22 0 -3 3 -9 7 -13 3 -4 5 0 4 9 -1 9 -8
22 -16 29 -10 10 -11 9 -4 -3z"/>
<path d="M4830 2650 c-9 -6 -10 -10 -3 -10 6 0 15 5 18 10 8 12 4 12 -15 0z"/>
<path d="M5231 2651 c-8 -5 -16 -17 -17 -26 -1 -9 1 -14 4 -10 4 4 6 9 4 12
-2 3 5 11 15 19 20 15 16 19 -6 5z"/>
<path d="M5384 2644 c-18 -14 -18 -15 4 -4 12 6 22 13 22 15 0 8 -5 6 -26 -11z"/>
<path d="M5551 2651 c-8 -5 -16 -17 -17 -26 -1 -9 1 -14 4 -10 4 4 6 9 4 12
-2 3 5 11 15 19 20 15 16 19 -6 5z"/>
<path d="M5704 2644 c-18 -14 -18 -15 4 -4 12 6 22 13 22 15 0 8 -5 6 -26 -11z"/>
<path d="M5871 2651 c-8 -5 -16 -17 -17 -26 -1 -9 1 -14 4 -10 4 4 6 9 4 12
-2 3 5 11 15 19 20 15 16 19 -6 5z"/>
<path d="M6024 2644 c-18 -14 -18 -15 4 -4 12 6 22 13 22 15 0 8 -5 6 -26 -11z"/>
<path d="M6191 2651 c-8 -5 -16 -17 -17 -26 -1 -9 1 -14 4 -10 4 4 6 9 4 12
-2 3 5 11 15 19 20 15 16 19 -6 5z"/>
<path d="M6344 2644 c-18 -14 -18 -15 4 -4 12 6 22 13 22 15 0 8 -5 6 -26 -11z"/>
<path d="M6511 2651 c-8 -5 -16 -17 -17 -26 -1 -9 1 -14 4 -10 4 4 6 9 4 12
-2 3 5 11 15 19 20 15 16 19 -6 5z"/>
<path d="M6664 2644 c-18 -14 -18 -15 4 -4 12 6 22 13 22 15 0 8 -5 6 -26 -11z"/>
<path d="M6831 2651 c-8 -5 -16 -17 -17 -26 -1 -9 1 -14 4 -10 4 4 6 9 4 12
-2 3 5 11 15 19 20 15 16 19 -6 5z"/>
<path d="M6984 2644 c-18 -14 -18 -15 4 -4 12 6 22 13 22 15 0 8 -5 6 -26 -11z"/>
<path d="M7151 2651 c-8 -5 -16 -17 -17 -26 -1 -9 1 -14 4 -10 4 4 6 9 4 12
-2 3 5 11 15 19 20 15 16 19 -6 5z"/>
<path d="M7304 2644 c-18 -14 -18 -15 4 -4 12 6 22 13 22 15 0 8 -5 6 -26 -11z"/>
<path d="M7471 2651 c-8 -5 -16 -17 -17 -26 -1 -9 1 -14 4 -10 4 4 6 9 4 12
-2 3 5 11 15 19 20 15 16 19 -6 5z"/>
<path d="M7624 2644 c-18 -14 -18 -15 4 -4 12 6 22 13 22 15 0 8 -5 6 -26 -11z"/>
<path d="M8066 2650 c5 -8 9 -18 9 -22 0 -3 3 -9 7 -13 3 -4 5 0 4 9 -1 9 -8
22 -16 29 -10 10 -11 9 -4 -3z"/>
<path d="M8546 2650 c5 -8 9 -18 9 -22 0 -3 3 -9 7 -13 3 -4 5 0 4 9 -1 9 -8
22 -16 29 -10 10 -11 9 -4 -3z"/>
<path d="M9026 2650 c5 -8 9 -18 9 -22 0 -3 3 -9 7 -13 3 -4 5 0 4 9 -1 9 -8
22 -16 29 -10 10 -11 9 -4 -3z"/>
<path d="M3668 2643 c7 -3 16 -2 19 1 4 3 -2 6 -13 5 -11 0 -14 -3 -6 -6z"/>
<path d="M4148 2643 c7 -3 16 -2 19 1 4 3 -2 6 -13 5 -11 0 -14 -3 -6 -6z"/>
<path d="M4628 2643 c7 -3 16 -2 19 1 4 3 -2 6 -13 5 -11 0 -14 -3 -6 -6z"/>
<path d="M5115 2640 c-4 -6 -1 -9 7 -8 7 2 12 -3 10 -10 -1 -8 2 -11 8 -7 8 5
7 11 -1 21 -14 17 -16 17 -24 4z"/>
<path d="M8148 2643 c7 -3 16 -2 19 1 4 3 -2 6 -13 5 -11 0 -14 -3 -6 -6z"/>
<path d="M8628 2643 c7 -3 16 -2 19 1 4 3 -2 6 -13 5 -11 0 -14 -3 -6 -6z"/>
<path d="M9108 2643 c7 -3 16 -2 19 1 4 3 -2 6 -13 5 -11 0 -14 -3 -6 -6z"/>
<path d="M9356 2642 c-3 -5 1 -9 9 -9 8 0 12 4 9 9 -3 4 -7 8 -9 8 -2 0 -6 -4
-9 -8z"/>
<path d="M3895 2620 c3 -5 8 -10 11 -10 2 0 4 5 4 10 0 6 -5 10 -11 10 -5 0
-7 -4 -4 -10z"/>
<path d="M4375 2620 c3 -5 8 -10 11 -10 2 0 4 5 4 10 0 6 -5 10 -11 10 -5 0
-7 -4 -4 -10z"/>
<path d="M7895 2620 c3 -5 8 -10 11 -10 2 0 4 5 4 10 0 6 -5 10 -11 10 -5 0
-7 -4 -4 -10z"/>
<path d="M8375 2620 c3 -5 8 -10 11 -10 2 0 4 5 4 10 0 6 -5 10 -11 10 -5 0
-7 -4 -4 -10z"/>
<path d="M8855 2620 c3 -5 8 -10 11 -10 2 0 4 5 4 10 0 6 -5 10 -11 10 -5 0
-7 -4 -4 -10z"/>
<path d="M1373 686 c0 -8 5 -14 11 -13 6 1 10 -4 8 -11 -1 -8 2 -11 8 -7 8 5
6 13 -6 26 -21 23 -21 23 -21 5z"/>
<path d="M1533 686 c0 -8 5 -14 11 -13 6 1 10 -4 8 -11 -1 -8 2 -11 8 -7 8 5
6 13 -6 26 -21 23 -21 23 -21 5z"/>
<path d="M1693 686 c0 -8 5 -14 11 -13 6 1 10 -4 8 -11 -1 -8 2 -11 8 -7 8 5
6 13 -6 26 -21 23 -21 23 -21 5z"/>
<path d="M1853 686 c0 -8 5 -14 11 -13 6 1 10 -4 8 -11 -1 -8 2 -11 8 -7 8 5
6 13 -6 26 -21 23 -21 23 -21 5z"/>
<path d="M3293 686 c0 -8 5 -14 11 -13 6 1 10 -4 8 -11 -1 -8 2 -11 8 -7 8 5
6 13 -6 26 -21 23 -21 23 -21 5z"/>
<path d="M3453 686 c0 -8 5 -14 11 -13 6 1 10 -4 8 -11 -1 -8 2 -11 8 -7 8 5
6 13 -6 26 -21 23 -21 23 -21 5z"/>
<path d="M3613 686 c0 -8 5 -14 11 -13 6 1 10 -4 8 -11 -1 -8 2 -11 8 -7 8 5
6 13 -6 26 -21 23 -21 23 -21 5z"/>
<path d="M3773 686 c0 -8 5 -14 11 -13 6 1 10 -4 8 -11 -1 -8 2 -11 8 -7 8 5
6 13 -6 26 -21 23 -21 23 -21 5z"/>
<path d="M5213 686 c0 -8 5 -14 11 -13 6 1 10 -4 8 -11 -1 -8 2 -11 8 -7 8 5
6 13 -6 26 -21 23 -21 23 -21 5z"/>
<path d="M5373 686 c0 -8 5 -14 11 -13 6 1 10 -4 8 -11 -1 -8 2 -11 8 -7 8 5
6 13 -6 26 -21 23 -21 23 -21 5z"/>
<path d="M5533 686 c0 -8 5 -14 11 -13 6 1 10 -4 8 -11 -1 -8 2 -11 8 -7 8 5
6 13 -6 26 -21 23 -21 23 -21 5z"/>
<path d="M5693 686 c0 -8 5 -14 11 -13 6 1 10 -4 8 -11 -1 -8 2 -11 8 -7 8 5
6 13 -6 26 -21 23 -21 23 -21 5z"/>
<path d="M7133 686 c0 -8 5 -14 11 -13 6 1 10 -4 8 -11 -1 -8 2 -11 8 -7 8 5
6 13 -6 26 -21 23 -21 23 -21 5z"/>
<path d="M913 683 c4 -6 2 -13 -5 -15 -8 -3 -6 -6 4 -10 17 -7 19 15 3 29 -4
4 -5 3 -2 -4z"/>
<path d="M3106 681 c-3 -5 2 -8 12 -7 9 0 16 -5 14 -12 -1 -8 2 -11 8 -7 8 5
7 11 -1 21 -13 16 -25 18 -33 5z"/>
<path d="M6946 681 c-3 -5 2 -8 12 -7 9 0 16 -5 14 -12 -1 -8 2 -11 8 -7 8 5
7 11 -1 21 -13 16 -25 18 -33 5z"/>
<path d="M1210 671 c0 -6 4 -13 10 -16 6 -3 7 1 4 9 -7 18 -14 21 -14 7z"/>
<path d="M4415 670 c-3 -6 1 -7 9 -4 18 7 21 14 7 14 -6 0 -13 -4 -16 -10z"/>
<path d="M5050 671 c0 -6 4 -13 10 -16 6 -3 7 1 4 9 -7 18 -14 21 -14 7z"/>
<path d="M850 665 c0 -7 30 -13 34 -7 3 4 -4 9 -15 9 -10 1 -19 0 -19 -2z"/>
<path d="M990 659 c0 -5 5 -7 10 -4 6 3 10 8 10 11 0 2 -4 4 -10 4 -5 0 -10
-5 -10 -11z"/>
<path d="M1027 659 c7 -7 15 -10 18 -7 3 3 -2 9 -12 12 -14 6 -15 5 -6 -5z"/>
<path d="M1110 659 c0 -5 5 -7 10 -4 6 3 10 8 10 11 0 2 -4 4 -10 4 -5 0 -10
-5 -10 -11z"/>
<path d="M1147 659 c7 -7 15 -10 18 -7 3 3 -2 9 -12 12 -14 6 -15 5 -6 -5z"/>
<path d="M1990 659 c0 -5 5 -7 10 -4 6 3 10 8 10 11 0 2 -4 4 -10 4 -5 0 -10
-5 -10 -11z"/>
<path d="M2027 659 c7 -7 15 -10 18 -7 3 3 -2 9 -12 12 -14 6 -15 5 -6 -5z"/>
<path d="M2110 659 c0 -5 5 -7 10 -4 6 3 10 8 10 11 0 2 -4 4 -10 4 -5 0 -10
-5 -10 -11z"/>
<path d="M2147 659 c7 -7 15 -10 18 -7 3 3 -2 9 -12 12 -14 6 -15 5 -6 -5z"/>
<path d="M2230 659 c0 -5 5 -7 10 -4 6 3 10 8 10 11 0 2 -4 4 -10 4 -5 0 -10
-5 -10 -11z"/>
<path d="M2267 659 c7 -7 15 -10 18 -7 3 3 -2 9 -12 12 -14 6 -15 5 -6 -5z"/>
<path d="M2350 659 c0 -5 5 -7 10 -4 6 3 10 8 10 11 0 2 -4 4 -10 4 -5 0 -10
-5 -10 -11z"/>
<path d="M2387 659 c7 -7 15 -10 18 -7 3 3 -2 9 -12 12 -14 6 -15 5 -6 -5z"/>
<path d="M2470 659 c0 -5 5 -7 10 -4 6 3 10 8 10 11 0 2 -4 4 -10 4 -5 0 -10
-5 -10 -11z"/>
<path d="M2507 659 c7 -7 15 -10 18 -7 3 3 -2 9 -12 12 -14 6 -15 5 -6 -5z"/>
<path d="M2590 659 c0 -5 5 -7 10 -4 6 3 10 8 10 11 0 2 -4 4 -10 4 -5 0 -10
-5 -10 -11z"/>
<path d="M2627 659 c7 -7 15 -10 18 -7 3 3 -2 9 -12 12 -14 6 -15 5 -6 -5z"/>
<path d="M2710 659 c0 -5 5 -7 10 -4 6 3 10 8 10 11 0 2 -4 4 -10 4 -5 0 -10
-5 -10 -11z"/>
<path d="M2747 659 c7 -7 15 -10 18 -7 3 3 -2 9 -12 12 -14 6 -15 5 -6 -5z"/>
<path d="M2830 659 c0 -5 5 -7 10 -4 6 3 10 8 10 11 0 2 -4 4 -10 4 -5 0 -10
-5 -10 -11z"/>
<path d="M2867 659 c7 -7 15 -10 18 -7 3 3 -2 9 -12 12 -14 6 -15 5 -6 -5z"/>
<path d="M2950 659 c0 -5 5 -7 10 -4 6 3 10 8 10 11 0 2 -4 4 -10 4 -5 0 -10
-5 -10 -11z"/>
<path d="M2987 659 c7 -7 15 -10 18 -7 3 3 -2 9 -12 12 -14 6 -15 5 -6 -5z"/>
<path d="M3867 659 c7 -7 15 -10 18 -7 3 3 -2 9 -12 12 -14 6 -15 5 -6 -5z"/>
<path d="M3950 659 c0 -5 5 -7 10 -4 6 3 10 8 10 11 0 2 -4 4 -10 4 -5 0 -10
-5 -10 -11z"/>
<path d="M3987 659 c7 -7 15 -10 18 -7 3 3 -2 9 -12 12 -14 6 -15 5 -6 -5z"/>
<path d="M4070 659 c0 -5 5 -7 10 -4 6 3 10 8 10 11 0 2 -4 4 -10 4 -5 0 -10
-5 -10 -11z"/>
<path d="M4107 659 c7 -7 15 -10 18 -7 3 3 -2 9 -12 12 -14 6 -15 5 -6 -5z"/>
<path d="M4190 659 c0 -5 5 -7 10 -4 6 3 10 8 10 11 0 2 -4 4 -10 4 -5 0 -10
-5 -10 -11z"/>
<path d="M4227 659 c7 -7 15 -10 18 -7 3 3 -2 9 -12 12 -14 6 -15 5 -6 -5z"/>
<path d="M4310 659 c0 -5 5 -7 10 -4 6 3 10 8 10 11 0 2 -4 4 -10 4 -5 0 -10
-5 -10 -11z"/>
<path d="M4347 659 c7 -7 15 -10 18 -7 3 3 -2 9 -12 12 -14 6 -15 5 -6 -5z"/>
<path d="M4507 659 c7 -7 15 -10 18 -7 3 3 -2 9 -12 12 -14 6 -15 5 -6 -5z"/>
<path d="M4590 659 c0 -5 5 -7 10 -4 6 3 10 8 10 11 0 2 -4 4 -10 4 -5 0 -10
-5 -10 -11z"/>
<path d="M4627 659 c7 -7 15 -10 18 -7 3 3 -2 9 -12 12 -14 6 -15 5 -6 -5z"/>
<path d="M4710 659 c0 -5 5 -7 10 -4 6 3 10 8 10 11 0 2 -4 4 -10 4 -5 0 -10
-5 -10 -11z"/>
<path d="M4747 659 c7 -7 15 -10 18 -7 3 3 -2 9 -12 12 -14 6 -15 5 -6 -5z"/>
<path d="M4830 659 c0 -5 5 -7 10 -4 6 3 10 8 10 11 0 2 -4 4 -10 4 -5 0 -10
-5 -10 -11z"/>
<path d="M4867 659 c7 -7 15 -10 18 -7 3 3 -2 9 -12 12 -14 6 -15 5 -6 -5z"/>
<path d="M4950 659 c0 -5 5 -7 10 -4 6 3 10 8 10 11 0 2 -4 4 -10 4 -5 0 -10
-5 -10 -11z"/>
<path d="M4987 659 c7 -7 15 -10 18 -7 3 3 -2 9 -12 12 -14 6 -15 5 -6 -5z"/>
<path d="M5830 659 c0 -5 5 -7 10 -4 6 3 10 8 10 11 0 2 -4 4 -10 4 -5 0 -10
-5 -10 -11z"/>
<path d="M5867 659 c7 -7 15 -10 18 -7 3 3 -2 9 -12 12 -14 6 -15 5 -6 -5z"/>
<path d="M5950 659 c0 -5 5 -7 10 -4 6 3 10 8 10 11 0 2 -4 4 -10 4 -5 0 -10
-5 -10 -11z"/>
<path d="M5987 659 c7 -7 15 -10 18 -7 3 3 -2 9 -12 12 -14 6 -15 5 -6 -5z"/>
<path d="M6070 659 c0 -5 5 -7 10 -4 6 3 10 8 10 11 0 2 -4 4 -10 4 -5 0 -10
-5 -10 -11z"/>
<path d="M6107 659 c7 -7 15 -10 18 -7 3 3 -2 9 -12 12 -14 6 -15 5 -6 -5z"/>
<path d="M6190 659 c0 -5 5 -7 10 -4 6 3 10 8 10 11 0 2 -4 4 -10 4 -5 0 -10
-5 -10 -11z"/>
<path d="M6227 659 c7 -7 15 -10 18 -7 3 3 -2 9 -12 12 -14 6 -15 5 -6 -5z"/>
<path d="M6310 659 c0 -5 5 -7 10 -4 6 3 10 8 10 11 0 2 -4 4 -10 4 -5 0 -10
-5 -10 -11z"/>
<path d="M6347 659 c7 -7 15 -10 18 -7 3 3 -2 9 -12 12 -14 6 -15 5 -6 -5z"/>
<path d="M6430 659 c0 -5 5 -7 10 -4 6 3 10 8 10 11 0 2 -4 4 -10 4 -5 0 -10
-5 -10 -11z"/>
<path d="M6467 659 c7 -7 15 -10 18 -7 3 3 -2 9 -12 12 -14 6 -15 5 -6 -5z"/>
<path d="M6550 659 c0 -5 5 -7 10 -4 6 3 10 8 10 11 0 2 -4 4 -10 4 -5 0 -10
-5 -10 -11z"/>
<path d="M6587 659 c7 -7 15 -10 18 -7 3 3 -2 9 -12 12 -14 6 -15 5 -6 -5z"/>
<path d="M6670 659 c0 -5 5 -7 10 -4 6 3 10 8 10 11 0 2 -4 4 -10 4 -5 0 -10
-5 -10 -11z"/>
<path d="M6707 659 c7 -7 15 -10 18 -7 3 3 -2 9 -12 12 -14 6 -15 5 -6 -5z"/>
<path d="M6790 659 c0 -5 5 -7 10 -4 6 3 10 8 10 11 0 2 -4 4 -10 4 -5 0 -10
-5 -10 -11z"/>
<path d="M6827 659 c7 -7 15 -10 18 -7 3 3 -2 9 -12 12 -14 6 -15 5 -6 -5z"/>
<path d="M4416 642 c-3 -5 1 -9 9 -9 8 0 12 4 9 9 -3 4 -7 8 -9 8 -2 0 -6 -4
-9 -8z"/>
</g>
</svg>
